<svg id="znak" xmlns="http://www.w3.org/2000/svg" width="95.123" height="104" viewBox="0 0 95.123 104">
  <path id="Path_5803" data-name="Path 5803" d="M95.123,0V57.981c0,23.187-19.146,45.885-47.316,46.016v0h-.491v0C19.145,103.866,0,81.167,0,57.981V0Z" fill="#1b1918" fill-rule="evenodd"/>
  <path id="Path_5804" data-name="Path 5804" d="M249.957,2.567V105.579l2.356-.06,2.547-.194,2.49-.317,2.432-.438,2.371-.553,2.309-.665,2.246-.772,2.18-.876,2.113-.976,2.044-1.071,1.973-1.163,1.9-1.251,1.825-1.334,1.749-1.414,1.67-1.49,1.591-1.561,1.508-1.629,1.425-1.692,1.338-1.751,1.251-1.807,1.162-1.858,1.071-1.9.976-1.948.882-1.987.785-2.022.687-2.053.586-2.08.483-2.1.379-2.122.273-2.135.165-2.146.055-2.158V2.567Z" transform="translate(-202.15 -2.076)" fill="#fff" fill-rule="evenodd"/>
  <path id="Path_5805" data-name="Path 5805" d="M7.9,80.915l17.8-78.348H2.566V60.051l.056,2.158.165,2.146.273,2.135.38,2.122.483,2.1.586,2.08.686,2.053.785,2.022.882,1.987L7.839,80.8Z" transform="translate(-2.075 -2.076)" fill="#e30016" fill-rule="evenodd"/>
  <path id="Path_5806" data-name="Path 5806" d="M7.9,80.915l17.8-78.348H2.566V60.051l.056,2.158.165,2.146.273,2.135.38,2.122.483,2.1.586,2.08.686,2.053.785,2.022.882,1.987L7.839,80.8Z" transform="translate(-2.075 -2.076)" fill="none" stroke="#1b1918" stroke-width="0.215"/>
  <path id="Path_5807" data-name="Path 5807" d="M73.425,108.864,50.058,6.629,32.289,84.822l.658,1.172,1.162,1.858,1.251,1.807L36.7,91.41,38.124,93.1l1.508,1.629,1.591,1.561,1.67,1.49,1.749,1.414,1.826,1.334,1.9,1.251,1.972,1.163,2.044,1.071,2.113.976,2.18.876,2.246.773,2.309.665,2.371.553,2.432.438,2.491.317,2.547.193Z" transform="translate(-26.113 -5.361)" fill="#fff" fill-rule="evenodd"/>
  <path id="Path_5808" data-name="Path 5808" d="M126.828,2.567l23.059,100.885V2.567Z" transform="translate(-102.571 -2.076)" fill="#e30016" fill-rule="evenodd"/>
  <path id="Path_5809" data-name="Path 5809" d="M126.828,2.567l23.059,100.885V2.567Z" transform="translate(-102.571 -2.076)" fill="none" stroke="#1b1918" stroke-width="0.215"/>
  <path id="Path_5810" data-name="Path 5810" d="M82.358,117l.365,3.627.221,2.2h0l.415,4.131.163,1.621.345,3.429-.576,3.484H87.15l-.649-3.331h.6l-.566-.566.193-2.29.129-1.537.313-3.717.252-3.009.181-2.143.235-2.791H95.1l.159-3.3-.848.255-.181.053-.182.052-.183.05-.183.048-.184.047-.185.046-.185.045-.185.042-.186.041-.186.04-.187.037-.187.037-.187.034-.187.033-.188.031-.188.029-.188.028-.188.026-.188.024-.189.022-.188.02-.189.019-.189.016-.189.015-.189.013-.188.011-.189.009-.189.007-.188.005-.188,0-.19,0H88V63.366l0-.382-.008-.392-.013-.4-.02-.406-.024-.411L87.9,60.96l-.034-.421-.038-.427-.043-.43-.047-.433-.052-.436-.056-.439-.06-.44-.064-.441-.067-.442-.072-.442-.075-.442-.078-.441-.082-.44-.085-.438-.087-.435-.091-.432-.094-.429-.1-.424-.1-.42-.1-.415-.1-.409-.105-.4-.108-.4-.11-.389-.112-.381-.12-.394-.067-.16-.124-.168-.192-.138-.257-.06-.262.058-.2.143-.123.176-.063.164-.1.388-.1.374-.1.382-.1.389-.1.4-.1.4-.1.408-.1.414-.094.418-.093.423-.092.426-.09.43-.087.432-.085.434-.083.436-.08.436-.077.438-.073.437-.07.436-.067.436-.062.434-.058.432-.054.429-.049.426-.044.423-.04.418-.033.414-.029.408-.022.4-.016.4-.01.389,0,.38v50.722H81.163l-.165,0-.167-.006-.167-.008-.169-.01-.17-.013-.17-.015-.171-.017-.172-.019-.172-.021-.172-.023-.171-.025-.171-.028-.17-.029-.17-.031-.169-.033-.167-.035-.167-.037-.164-.038-.164-.04-.16-.041-.159-.043-.157-.044-.154-.046-.151-.047-.149-.049-.146-.05-.142-.051-.139-.052-.134-.054-.132-.054-.836-.363.084,3.49h6.689Z" transform="translate(-61.057 -39.948)" fill="#1b1918" fill-rule="evenodd"/>
  <path id="Path_5811" data-name="Path 5811" d="M87.51,106.116a6.953,6.953,0,0,0,2.152,3.458V65.5a50.22,50.22,0,0,0-2.152-13.28c-.078-.251-.285-.256-.355,0a56.9,56.9,0,0,0-2.178,13.137v44.118a6.069,6.069,0,0,0,2.178-3.339V77.705c0-.265.355-.241.355.024Zm2.152,9.966H84.977v-6.189a5.472,5.472,0,0,0,2.356-3.223,6.158,6.158,0,0,0,2.329,3.358ZM78.21,117.744H96.787l.1-2.139a21.132,21.132,0,0,1-6.117.959h-7.3a14.158,14.158,0,0,1-5.321-1.062Zm8.3,16.447-.486,2.935h2.685l-.571-2.935Zm2.852-14.259.147-1.757H87.6ZM86.3,132.025l.179,1.771h1.593Zm-.277-2.76.237,2.356,1.951,1.951.164-1.955Zm-.3-2.992.26,2.587,2.422,2.422.18-2.147Zm-.336-3.34.3,2.936,2.931,2.932.2-2.436Zm-.365-3.627.324,3.222,3.5,3.5.225-2.674Zm-.114-1.13.073.725L89.1,123.02l.232-2.753-2.091-2.091Z" transform="translate(-63.208 -42.076)" fill="#d3eefa" fill-rule="evenodd"/>
  <path id="Path_5812" data-name="Path 5812" d="M125.385,164.914h0a.178.178,0,0,1,.177.177v1.73a.177.177,0,0,1-.177.177h0a.178.178,0,0,1-.178-.177v-1.73a.178.178,0,0,1,.178-.177" transform="translate(-101.26 -133.372)" fill="#1b1918" fill-rule="evenodd"/>
  <path id="Path_5813" data-name="Path 5813" d="M125.385,131.2h0a.178.178,0,0,1,.177.177v3.387a.178.178,0,0,1-.177.177h0a.178.178,0,0,1-.178-.177v-3.387a.178.178,0,0,1,.178-.177" transform="translate(-101.26 -106.103)" fill="#1b1918" fill-rule="evenodd"/>
  <path id="Path_5814" data-name="Path 5814" d="M125.385,109.5h0a.178.178,0,0,1,.177.177v1.534a.178.178,0,0,1-.177.177h0a.178.178,0,0,1-.178-.177v-1.534a.178.178,0,0,1,.178-.177" transform="translate(-101.26 -88.554)" fill="#1b1918" fill-rule="evenodd"/>
  <path id="Path_5815" data-name="Path 5815" d="M281.251,94.125c-.241-.193-.475-.157-.661-.415-.523-.168-.727-.469-1.2-.469-.4-.306-1.73-.4-1.8-.672a1.368,1.368,0,0,1,.313-.27c0-.318-.1-.379-.343-.4-.12.12-.427-.06-.522-.078-.367.006-.667.084-.9-.12a3.28,3.28,0,0,1-1.123-.061,12.846,12.846,0,0,0-2.686.361,1.226,1.226,0,0,1-.385.048,7.574,7.574,0,0,1,1.586-1.76c.367-.661,2.92-1.61,3.551-1.3a4.737,4.737,0,0,1,2.325.361c.781.174,1.4,1.273,1.845,1.9.18.084.168.054.168.3.03.024.066.048.1.078a.576.576,0,0,0-.019.06,3.319,3.319,0,0,1-.048,2.439ZM269.157,74.707c-.288-.174-.259-.342-.541-.462a17.039,17.039,0,0,0-1.2-1.556,1.17,1.17,0,0,1-.324-.439,5.29,5.29,0,0,1-1.069-2.019c.366-.181.162-.95.625-1.021.36.625,1.13,2.361,1.845,2.535.084.3.571.085.63.523a3.194,3.194,0,0,0,.138,2.025c.024.131.084.234-.018.4a.457.457,0,0,0-.09.012m8.6,5.516a.363.363,0,0,1-.1-.163,3.953,3.953,0,0,1-1.183-.66c-.523-.078-.986-.409-1.424-.451a7.488,7.488,0,0,0-1.706-.835c-.042-.042-.24-.12-.421-.241a8.01,8.01,0,0,0-.084-1.171.274.274,0,0,1-.043-.018c-.084-.577-.522-.841-.637-1.237a2.877,2.877,0,0,1-.433-.787c0-.883-.583-.235-1.076-.235-.408-.174-.444-1.79-.24-1.994.234,0,.4-.132.667-.132a2.9,2.9,0,0,0,2.626-.343c.571-.252.534-.811.733-1.273.3-.241.462-.871.811-.914.187.277-.03.9.15,1.2.108,1.075.45,2.163.5,3.268.1.1-.012.265.162.4a13.631,13.631,0,0,0,.571,2.025c.018.024.33.769.354.865.258.433.234,1.1.6,1.562.025.2.1.372.126.583a.758.758,0,0,1,.2.553Zm1.67-1.106c-.288-.361-.967-2.536-1.045-2.554a12.8,12.8,0,0,1-.355-1.6c-.2-.294-.114-.757-.282-.985,0-.493-.492-2.175-.4-2.247a3.88,3.88,0,0,1-.1-.462.422.422,0,0,1-.06-.037,1.035,1.035,0,0,0-.061-.624A5.838,5.838,0,0,1,277,68.688l.156-.018a7.8,7.8,0,0,0,1.364.739h.24c.163.162.547-.067.7.09,1,.085,1.9.313,2.95.313.156.024.456-.037.468.234-.565.7-1.075,1.388-1.586,2.1a3.386,3.386,0,0,1-.541,1.081,13.594,13.594,0,0,0-.48,1.61,5.582,5.582,0,0,0-.421,1.76c-.138.211,0,.8-.18,1.106a8.333,8.333,0,0,1-.162,1.406.375.375,0,0,0-.085.006m6.339-29.746a3.136,3.136,0,0,1-1.045-.252.271.271,0,0,1-.012-.06,8.3,8.3,0,0,0,.973-.654,3.72,3.72,0,0,0,1.165-.6c.211,0,.373-.2.607-.271.09-.234.583-.517.835-.619,0,.144-.072.2-.072.4a5.045,5.045,0,0,1,.12,1.124c.54.4-.631.751-.751.787-.619.043-1.255.055-1.82.144m-1.424-1.387c-.264-.067-.085-.451.078-.486,0-.391.21-.752.21-1.064a5.076,5.076,0,0,1,1.316-.312c.09-.18.355-.162.559-.324.085-.15.114-.15.264-.223a.625.625,0,0,1,.246-.384,4.65,4.65,0,0,1,.481-1.268,3.024,3.024,0,0,0,.6-1.742c.048-.144.054-.193.216-.193.181.367.9.6.991,1.034-.15.186-.15.913-.372,1.021a.358.358,0,0,0-.012.084c-.114.078-.084.2-.27.306-.276.553-.926.985-1.183,1.508-.181.072-.307.277-.5.277a9.664,9.664,0,0,1-2.066,1.543c-.247.055-.342.2-.559.223m-25.48,69.307c-1.166-.078-.793-1.141-.793-1.874.137-.1.1-.379.1-.5.229-.294.234-.715.481-.925,0-.193.114-.252.21-.379a.831.831,0,0,1,.12.006c.072-.072.006-.15-.012-.21.36-.457.727-1.154,1.3-1.352.15-.2.276-.132.462-.264a30.375,30.375,0,0,0,4.091-.559,1.042,1.042,0,0,1,.361,0c.09-.09.024-.175.162-.265.637-.192,1.322-.661,1.964-.8.169-.168.505-.234.661-.421a5.414,5.414,0,0,0,1.5-.907,3.576,3.576,0,0,0,1.165-.672c.391-.307,1.653-.89,1.767-1.232.51-.144.919-.859,1.405-.979.18-.324.529-.444.721-.787.415-.277.92-1.057,1.286-1.16.09-.462.913-1.015,1.07-1.436.258-.162.234-.282.222-.523a9.059,9.059,0,0,0-1.2-.2.321.321,0,0,0-.036.048c-.511-.054-1.082-.48-1.509-.433a.733.733,0,0,0-.114.223,3.077,3.077,0,0,1-2.049-.012,3.908,3.908,0,0,1-1.406-.781c-.264,0-.468-.222-.66-.222a1.268,1.268,0,0,0-.132.132,8.446,8.446,0,0,1-.643,2.427v.1c-.114.072-.036.234-.163.361-.2.457-.949,1.724-1.454,1.766v-.061a.365.365,0,0,1,.084-.03l.018-.072c-.282-.078-.258-.475-.415-.661-.439,0-.559.661-.919.841A4.12,4.12,0,0,1,264.663,107c-.366.367-.415-.054-.6-.222a1.707,1.707,0,0,0-1.021.763,5.354,5.354,0,0,0-1.6.967l-.06.018c-.276-.186-.2-.354-.522-.385a6.011,6.011,0,0,1-1.809.908,2.337,2.337,0,0,1-.841.277c-.672.408-.937.15-.937-.505a7.49,7.49,0,0,1,.162-2.41,4.15,4.15,0,0,0,.3-1.045c-.234-.054-.378.078-.51.012-.355-.655-.108-1.255-.108-1.892a3.661,3.661,0,0,0,.259-.823.367.367,0,0,0,.1-.42c-.672-.247-.144-.517-.2-.986a4.989,4.989,0,0,1,.787-1.845c.078-.33.457-.625.3-.943h-.264c-.073-.613.492-1.262.637-1.785a.179.179,0,0,1,.06-.012,9.683,9.683,0,0,1,1.244-1.766c.223-.072.847-.565.871-.811-.282-.283-.847-.409-1.112-.595a.386.386,0,0,0-.342-.21v-.12c-.583-.168-1-1.13-1.436-1.322-.048-.211-.222-.391-.222-.541.2-.2.36-.126.7-.114.163-.433-.162-.6-.414-.829-.114-.385-.625-.7-.661-.985-.2-.132-.216-.547-.24-.7.144-.294.276-.138.493-.3,0-.583-.715-1.142-.715-1.742a1.375,1.375,0,0,1-.2-.625c.175-.138.487-.15.451-.432a.209.209,0,0,0-.061-.007c0-.649-.391-1.352-.391-1.988a.229.229,0,0,1-.042-.037v-.18a1.309,1.309,0,0,1-.126-.979,4.916,4.916,0,0,1,2.042.361c.265.21.859.18,1.142.462.276-.09-.06-.4.282-.6.625.054,1.262.348,1.965.421a.991.991,0,0,0,.583.282,1.129,1.129,0,0,0,.48.259c.1.1.379.378.583.4.03-.222.012-.427.048-.589a.412.412,0,0,1,.217-.054c.048.06,1.268.757,1.322.763.217.288.907.462,1.2.9.234.108,1.148.691,1.244,1.04a3.844,3.844,0,0,1,1.274,1.424c.391.162.721,1.117,1,1.5.18.336.607,1.754.937,1.916.409,0,1.16-1.34,1.6-1.544a5.157,5.157,0,0,1,1.947-1.3,2.926,2.926,0,0,1,1.322-.564,8,8,0,0,1,2.007-.138c.48.18.967.036,1.526.27v.078a1.291,1.291,0,0,1,.156-.012c.126.324.758.174,1.088.583.186.036.5.342.7.283a4.864,4.864,0,0,0-.012-1.532c-.24-.24-.138-1.045-.379-1.2a3.906,3.906,0,0,0-.805-1.671c-.27-.462-.787-.822-.9-1.243-.235-.024-.613-.456-.709-.589a11.328,11.328,0,0,0-1.424-.943,5.83,5.83,0,0,0-1.664-1.105c-.739-.09-1.3-.439-1.947-.559-.125-.126-.12-.078-.222-.09a1.5,1.5,0,0,0-.679-.372l-.3-.282-.162.018a2.1,2.1,0,0,1-2.247.3c-.7-.2-1.214-.709-1.905-.336h-.2c-.457-.914.288-1.2.805-1.647.745-.318-.126-.486-.361-.7a1.855,1.855,0,0,0-.474-.186.859.859,0,0,1-.006-.12c-.6.168-1.256-.378-1.827.1-.036.247-.072,1.207-.336,1.406a2.938,2.938,0,0,1-2.536,3.015,2.584,2.584,0,0,1-1.219-.3,3.766,3.766,0,0,1-1.928-.36c-.007-.024-.013-.048-.019-.066-.564-.108-1.52.06-1.886-.306a2.855,2.855,0,0,1-.613-.234c-.042-.144-.084-.463-.108-.5a2.337,2.337,0,0,1-2.043-.931,2.059,2.059,0,0,1,1-1.262c.1-.258.294-.306.5-.474.042-.6.775-1.064,1.081-1.58a1.831,1.831,0,0,0,.468-.595c.241-.187.758-.547.871-.823.427-.048.787-.625,1.226-.709.541-.541,2.151-.691,2.631.06,1.118.186,1.7,1.045,2.487,1.832a4.226,4.226,0,0,0,.144.4,5.173,5.173,0,0,1,2.362.27.654.654,0,0,1,.108-.006c-.024-.241-.144-.379-.306-.4,0-.3-.457-.517-.559-.721a9.019,9.019,0,0,1-1.76-2.271c-.541-.451-.132-.733-.955-.733-.649.6-.967.331-1.761.361a2.8,2.8,0,0,0-.907-.1c-.462.229-1.508.168-1.676-.348-.217-.247-.607-.234-.649-.427-.523-.085-1.43-1.49-1.454-1.862-.229-.517.018-1.628-.2-1.9a4.151,4.151,0,0,1,.042-1.869.414.414,0,0,1-.042-.223c.054-.042.1-.072.114-.138a1.778,1.778,0,0,0-.18.006,3.909,3.909,0,0,1-.192-1.79,1.464,1.464,0,0,0,.318-.642c-.114-.175-.09-.162-.006-.265-.036-.018-.072-.036-.1-.049-.018-.492-.21-1.429.2-1.688.69-.853.739.126,1.31.457a.472.472,0,0,0,.474.288c.342-.565,1.31.223,1.665.523a3.7,3.7,0,0,1,.8.138c.126.186,1.045.342,1.225.7.4.156.331.631.985.7.331.493.9.781,1.189,1.376a3.36,3.36,0,0,1,.841,2.289c.03.09.03.168.217.2.271-.36.33-.775.631-1.148.1-.409.45-.216.679-.445,0-.589.931-1.268,1.357-1.658a2.807,2.807,0,0,1,.944-1.292c.2-.349.648-.373.787-.859a6.981,6.981,0,0,0,.631-.583.733.733,0,0,1,.084.03l.018-.09c.247,0,.511-.234.883-.234.409-.349.006-.355.043-.727h-.078c.06-.427-.18-.853-.132-1.3-.024-.156-.042-.313-.06-.463.06-.06.072-.27.078-.324.439,0,.27.409.733.45a1.517,1.517,0,0,0-.192-.751c-.036-.222-.072-.445-.108-.661a7.72,7.72,0,0,1-.252-2.145c.006-.09.012-.175.018-.259.21-.18,1.454-.361,1.616-.114.072,0,.679.085.763-.06a25.636,25.636,0,0,1,.835-4.061,6.89,6.89,0,0,0,.1-1.485,2.591,2.591,0,0,0,.1-1.225,1.627,1.627,0,0,0,.078-.823,7.2,7.2,0,0,0,.06-1.484.252.252,0,0,1,.042-.036c0-.709-.126-1.358-.138-2.031-.143-.144-.156-1.3-.384-1.641a1.318,1.318,0,0,0-.036-.384c-.553-.553-.553-1.874-1.208-2.163a.493.493,0,0,0-.21-.282c-.295,0-.637,1.61-.914,2.025a5.8,5.8,0,0,1-.883,1.928,3.106,3.106,0,0,1-.378.637,5.9,5.9,0,0,1-1.165,1.628c-.247.433-1.112,1.268-1.592.787l-.12-.018c-.475.415-.968,1.286-1.562,1.484a4.056,4.056,0,0,1-1.3.805.723.723,0,0,1-.234-.589c-.252-.252-.769.5-1.094.421-.006.024-.012.054-.018.084-.18.018-.162.031-.264.144-.433.175-2.157,1.424-2.157.211a.512.512,0,0,0,.1-.24c-.294-.06-.667.162-.926.229-.757.619-3.785,1.784-3.785.252.18-.408.132-1.273.385-1.526a9.7,9.7,0,0,1,.793-1.857c.012-.174.006-.21.126-.306-.084-.529-.823.306-1.13-.186a4.725,4.725,0,0,0,.451-1.015,2.552,2.552,0,0,0,.631-1.045c.259-.06.529-.74.409-.985-.661-.049-.349-.462-.018-.739a2.146,2.146,0,0,1,1.093-1.136c.1-.126.162-.067.3-.18.037-.229.012-.2.223-.241a.666.666,0,0,1,.451-.349c.054-.222,1.124-.6,1.124-1.045-.325-.186-.337-.084-.361-.445a2.077,2.077,0,0,1,.691-.45c.156-.235.7-.439.745-.607.288-.024.607-.4,1.021-.4a.806.806,0,0,1,.5-.259c.138-.174.991-.276.991-.571-.156-.1-.18-.2-.264-.282A7.914,7.914,0,0,1,264,33.619c-.7-.306-1.105-1.033-1.64-1.388-.156-.36-2.055-1.845-.985-1.977.144-.222-.012-.336-.12-.4,0-.27-.4-.409-.487-.727-.3-.12-.7-1.027-.793-1.292-.193-.192-.144-.439-.3-.643,0-.414-.625-1,.054-1.2.186-.186-.174-1.093-.336-1.256a9.988,9.988,0,0,1-.337-1.724.806.806,0,0,1,.313-.234c.006-.085.012-.168.024-.247a2.128,2.128,0,0,1-.361-1.346c-.283-.229-.132-1.28-.108-1.6a.393.393,0,0,1,.048-.036c0-.619.12-1.316.937-1.13.03.042.373.1.541.174.078.108,1.057.318,1.3.457a2.649,2.649,0,0,0,1.2.643c.156-.132.031-.379.031-.487.252-.21.372.043.733.067.131.132.571.144.763.384a5.081,5.081,0,0,1,1.43,1.2.87.87,0,0,0,.474.125.916.916,0,0,1,.283-.583,1.878,1.878,0,0,1,1.183.7,1.642,1.642,0,0,0,.2.072c0,.06.007.12.013.18-.072.054-.067.018-.09.12h.06c.006.024.012.048.018.078h.09v-.12a.3.3,0,0,1,.072-.013,3.435,3.435,0,0,1,.558.938.691.691,0,0,1,.084.03c.006.048.012.1.018.15.036.018.559.715.649.258.1-.066.1-.15.138-.252.42,0,.943.721,1.219,1.106.085.078.174.126.1.294a.221.221,0,0,1,.066-.024.178.178,0,0,1,.012-.06.3.3,0,0,1,.072.025,2.661,2.661,0,0,0,.619,1.081.863.863,0,0,0,.9.829,2.425,2.425,0,0,1,.487,1.039.51.51,0,0,0,.06.036c0,.265.168,1.166.517,1.232.084-.12.1-.223.24-.277.006-.276.067-.187.187-.355a13.471,13.471,0,0,1,1.075-1.8c.282-.03.306-.15.547.126.408,0,.733-.6.985-.871a1.479,1.479,0,0,0,.583-.6c.5-.319,1.069-1.058,1.688-1.021a2.877,2.877,0,0,0,.234.607c.126-.006.253-.006.384-.006.06-.217.138-.229.373-.211.036-.162.889-.468,1.027-.48l.036-.072a.181.181,0,0,1,.06-.012c.018.024.036.055.06.084h.084c.27-.373.2-.192.583-.385.12-.162.06-.018.24-.018a.368.368,0,0,0,.066-.168,4.023,4.023,0,0,1,.937-.174c.067.066-.144.577-.1.793.162.09.21.036.433-.03a2.8,2.8,0,0,1,1.3-.3,3.749,3.749,0,0,1,1.063-.312c.042.042.361-.03.523-.018.006.018.012.036.018.06.12-.072.066-.156.33-.12a.578.578,0,0,1,.036.066c.229-.012,1.13-.114,1.13.294-.108.108-.108,1.334-.342,1.568-.06.216-.288,1.171-.511,1.279a.749.749,0,0,0-.168.361c.241.21.829.222.4.745a4.163,4.163,0,0,1-1.628,2.337.471.471,0,0,0-.163.349c1.058.15-.619,1.76-1.021,1.994-.258.282-.913.523-.8.914.642.8-2.439,2.673-2.776,2.841a4.715,4.715,0,0,1-1.244.457c-.006.006-1.472.457-1.562.463-.27.12-1.423.6-1.6.421-1.124.168-1.117.33-.492,1.1a5.179,5.179,0,0,0,.637,1.5,24.007,24.007,0,0,1,1.124,3.611,10.494,10.494,0,0,1,.462,4.873,8.36,8.36,0,0,1-.078,1.424c-.09.108-.1.078-.1.265.162.162-.373,1.484-.21,1.61.4,0,1.237-.781,1.73-.961.223-.277.475-.15.607-.589a3.058,3.058,0,0,1,.763-1.045c.294-.5.4-.15.4-.859-.1-.066-.138-.367-.132-.4.132-.078.132-.078.162-.12.078.049.2.072.258.2a.257.257,0,0,1,.06.012c.186-.186.9.03.974.312a1.021,1.021,0,0,1,.108.06c.264-.264.246-.823.4-1.1-.054-.733-1.057-.9-1.574-.9a1.08,1.08,0,0,0-.642-.343c-.192-.288-.288-.282-.415-.589a3.535,3.535,0,0,1-.48-1.442,2.255,2.255,0,0,0,.06-.865c-.577-.462-.078-2.066.294-2.5-.024-.018-.042-.03-.06-.042.241-.325.739-.631.847-1.064.2-.2.534-.715.834-.715.325-.378.661-.427,1.088-.678a1.876,1.876,0,0,1,.817-.643c.727-.192,1.051-1.087,1.766-1.2.168-.229.342-.1.462-.223.06.018.06.018.138.108-.006.024-.012.055-.018.085l.09.018a9.842,9.842,0,0,1,.559,1.105,1.735,1.735,0,0,1,.481,1.064c.03.012.06.024.1.042,0,.355.181.553.229.9.048.03.066.066.09.181l.072.018c.048.24.277.522.277.865-.054.054.03.258.132.36.138-.084.12-.421.108-.5-.4-.27.084-.92.12-1.28.288-.559,1.058-2.259,1.779-2.259a.679.679,0,0,0,.9.12A3.28,3.28,0,0,1,292.7,35.6a.507.507,0,0,0,.03.06c.1-.1.09-.1.265-.1.078-.078.107-.054.24-.06.169.168.571-.055.739-.181a1.25,1.25,0,0,0,.481-.048c-.006.036-.012.079-.018.12.006,0,.528-.192.54-.21.343.006,1.491.12,1.869-.163.367,0,.523.114.92-.018.18.012.2.043.342.043.174.258-.48,1.387-.432,1.856a1.2,1.2,0,0,1,.2,1.28,3.229,3.229,0,0,0-.516,1.766c-.108.247-.229.793-.462.961-.313.486-.565,1.556-1.232,1.718a2.866,2.866,0,0,1-1.027.577,16.494,16.494,0,0,0-1.616,1.039c-.012.024-.024.048-.036.078-.547.066-1.791.036-2.079-.421-.012-.223-.114-.4-.276-.373a8.066,8.066,0,0,1-.775,1.177c-.186.523-.769.751-.805,1.28a.3.3,0,0,1,.072.012c.054-.054.1-.048.2-.06a2.588,2.588,0,0,1,1.6-.763c.09-.157.061-.157.241-.181.6-.7,2.373-.439,3.106.037.09.414.841.433,1.267.564a3.106,3.106,0,0,0,1.562.619,3.052,3.052,0,0,1,.685.624c.451.132.859.794,1.381,1.051.006.055.012.108.018.162a.689.689,0,0,1,.373.2c0,.366-.968,1.316-1.274,1.5-.126.193-.216.439-.354.661a3.6,3.6,0,0,1-1.424.781c-.108.379-.889.865-1.219,1.064-.013.108-.019.216-.025.324-.51.288-.589.571-1.2.678a.378.378,0,0,0-.03.072c-.379.06-1.051.324-1.364.2a5.873,5.873,0,0,1-2.523-.883c-.421-.048-1.244-1.069-1.3-1.393-.312-.27.126-.691-.571-.691a11.183,11.183,0,0,0-2.085.1,5.748,5.748,0,0,0-1.46-.151,1.655,1.655,0,0,1-.667,1.009c-.18-.03-.144-.107-.174-.186-.318-.336-.751-.174-1.094-.174-.637.21-1.586.45-2.025-.1a1.947,1.947,0,0,0-1.484.625c-.433.072-.751.528-1.124.619-.186.15-.348.5-.583.541-.156.348-.528.51-.649.919-.409.451-.757,1.142.108,1.43a1.042,1.042,0,0,0,.763.3.4.4,0,0,1,.444-.211c.048.1.15.072.216.2a.546.546,0,0,1,.1-.012c.265.216.787.252,1.021.631.553.223.865.8,1.268,1.244a.192.192,0,0,0-.061.024.614.614,0,0,1,.019.066,1.066,1.066,0,0,1,.24,0c.174.529.883.337,1.171.914a.285.285,0,0,0,.15.042c.078.486.9.931,1.052,1.484a2.881,2.881,0,0,1,.655,1.082c.3.048.264.528.6.595a2.511,2.511,0,0,0,.511-1.2c.283-.21.4-.667.7-.919.144-.306,1.148-1.61,1.556-1.544.078.126.072.445.241.469.823-.595,1.382-1.479,2.289-1.827a3.9,3.9,0,0,1,.919-.523c.055.084.072.031.18.1.031.186-.048.427.181.613.306-.27.672-.69,1.075-.763.006-.036.012-.072.018-.1.144-.1.27-.072.457-.15.078-.264.1-.252.361-.3.294-.246,1.5-.408,1.622-.565.517.144.493-.078.493.7.125.355.684-.06.991-.15a3.61,3.61,0,0,1,1.748-.516.344.344,0,0,0-.024.084,3.683,3.683,0,0,1,.787-.114,6.871,6.871,0,0,1-.535,2.884.533.533,0,0,0,.072.3c.1-.018.21-.03.318-.042.006-.024.012-.042.018-.06.583.258-.078.919-.108,1.346-.288.444-.324,1.177-.745,1.544-.084.264-.535.589-.486.829a.9.9,0,0,1,.571.193,1.119,1.119,0,0,1-.343.6c-.385.51-1.105,2.013-1.634,2.277-.108.27-.18.192-.03.516a1.338,1.338,0,0,1-.631.865,4.711,4.711,0,0,1-1.544,1.64,6.031,6.031,0,0,1-1.724,1.009c-.108.055-.235.12-.2.253.764.306,2.127.409,2.751,1.033a6.263,6.263,0,0,1,1.16.661c.037.241-.283.324-.451.415.073.433.968,1.063,1.244,1.586a3.3,3.3,0,0,1,.823,1.081c-.3.3-.439.03-.475.583a.517.517,0,0,1,.247.5h.138c.078.414.643.889.7,1.387.06.018.06.018.078.055-.09.131.037.138.162.264a.272.272,0,0,0-.072.138c.276.114.282.733.174,1.015-.3.037-.3.037-.372.072-.013.108-.019.222-.025.336.049.048.049.09.06.186a.438.438,0,0,0,.06.037c0,.306.258.678.3,1.087.15.3.427.985-.006,1.244-.8-.18-.7-.138-.672.721.048.048.054.144.06.276.192.192.09.751-.06,1.027-1.052.21-2.415-.547-3.317-.938h-.12c-.114.114-.042.264-.132.4a4.568,4.568,0,0,1-2.037-1c-.024-.06-.042-.12-.061-.18a.742.742,0,0,0-.12.012c.012.018.024.036.042.06-.108,0-.211-.12-.241-.144l.108-.036a.3.3,0,0,1,.012-.078c-.084-.006-.162-.006-.241-.006a1.083,1.083,0,0,0-.967-.511c-.09-.042-.174-.084-.259-.12-.492-.492-1.928-.973-2.091-1.634-.223-.132-.055-.3-.217-.336-.048-.162-.144-.331-.162-.427a4.538,4.538,0,0,1-.5.09,3.752,3.752,0,0,1-.385-.48c-.33,0-.745-.794-1.015-.992-.15-.457-.444-.739-.511-1.166-.282-.4-.276-.865-.553-1.2-.09-.547-.54-1.076-.54-1.562-.258-.258-.229-.883-.409-1.207-.486,0-.859,1.111-1.118,1.508a2.353,2.353,0,0,1-.457.919,10.466,10.466,0,0,1-.385,1.244,6.374,6.374,0,0,0-.558,1.869,11,11,0,0,0-.223,4.031,6.243,6.243,0,0,0,.48,1.8c0,1,.92,1.977,1.166,2.974.276.4.27.961.583,1.4.469,1.436.823,3.022,1.22,4.554,0,.222.042.462.042,1.027-.294.4-.192,1.124-.421,1.58-.042.547-.36,1.154-.36,1.706-.168.378-.655.751-.294,1.2a2.341,2.341,0,0,1,.973,1.484,6.35,6.35,0,0,1-2.613.992c-.114.27.09.577.331.775,0,.108-.055.114-.09.253a2.084,2.084,0,0,0-1.736.974,16.843,16.843,0,0,0-1.045,1.406c-.5.384-.769.985-1.292,1.358a.4.4,0,0,1-.241.276,7.575,7.575,0,0,1-1.328,1.412,2.459,2.459,0,0,1-.679.571c-.072.294-1.5,1.184-1.676,1.556a28.913,28.913,0,0,0-2.415,1.953c-.306.132-.535.415-.883.546-.2.2-.162.313-.48.457a7.45,7.45,0,0,1-1.364.943,2.426,2.426,0,0,0-.943.523c-.715.276-1.226.709-1.9,1.021-.252.378-1.088.468-1.424.8-.847.4-1.742.655-2.53,1.082a9.213,9.213,0,0,0-1.142.66,10.161,10.161,0,0,0-1.567.968c-.078.12-.541.174-.661.2" transform="translate(-206.342 -14.876)" fill="#1b1918" fill-rule="evenodd"/>
  <path id="Path_5816" data-name="Path 5816" d="M298.185,38.155a1.184,1.184,0,0,1,.06-.313c.144-.036.325-.33.24-.462-.373-.036-.318.144-.565.355.03.042.03.042.03.222-.113.06-.174.15-.312.18a.724.724,0,0,1-.03-.264,1.05,1.05,0,0,0,.2-.559c-.372-.493,1.334-.793,1.67-.661a3.211,3.211,0,0,1-.084.859c-.156.048-.15.258-.258.4a8.275,8.275,0,0,0-.95.241m-10.556.125a.368.368,0,0,0-.048-.024.991.991,0,0,0,0-.324c-.12-.018-.181-.066-.253-.018l.12.12c-.049.078-.306.09-.361.09-.439-.7.012-.871.541-1.225a1.526,1.526,0,0,1,.3.072.543.543,0,0,0-.012.1c.036.03.079.06.12.1v.084a1.145,1.145,0,0,1,.342.583.3.3,0,0,1-.228.055.864.864,0,0,1-.523.39m7.606.343c0-.5.372-.355.667-.607v-.241c-.162-.162-.492.126-.6.018.018-.2.036-.391.06-.583a1.166,1.166,0,0,0,.235-.282c.048-.006.223-.036.259-.09.138.006.559-.1.685,0a.867.867,0,0,1,.516-.09c.042.12.042.12.084.144.054-.055.1-.042.222-.055.2.343.049,1.364-.522,1.364-.211.048-.457.066-.565.2-.294-.048-.451.078-.721.1l-.036.09a.892.892,0,0,1-.282.036m-2.632.312a1.276,1.276,0,0,1,.012-.361c-.7-.7,1.328-1.279,1.665-1.3a.63.63,0,0,1,.03-.114,3.091,3.091,0,0,1,.565-.06,1.6,1.6,0,0,1-.342,1.424c-.4-.042-.619.15-.944.132,0-.252.042-.234.27-.336.042-.138.054-.229-.024-.325h-.108l-.078-.1a5.843,5.843,0,0,0-.926,1.051.9.9,0,0,0-.12-.012m-6.675.883c-.024-.324.27-.625-.024-.823-.18.15-.1.181-.2.373a.537.537,0,0,0-.1.012.974.974,0,0,0-.012.138c-.084.054-.1.114-.138.2-.24.037-.294-.865-.282-1,.144-.072.138-.131.18-.246.085-.012.595-.283.733-.349.259-.018.343-.18.565-.18a1.952,1.952,0,0,1,.1,1.2c-.373.144-.5.571-.817.673m12.334.168c-.018-.018-.018-.018-.24-.006,0-.114.108-.114.126-.222a1.123,1.123,0,0,0,.276-.223c-.15-.15-.085-.222-.264-.252-.132.132-.223.078-.288.277-.217.042-.306.373-.553.421,0-.354.108-.643.108-.943.348-.421,2.108-1.058,2.108.018-.054.114-.1.228-.15.348a.173.173,0,0,0-.06.012c-.055.132-.168.5-.415.444-.066-.138-.1-.09-.186-.072a.537.537,0,0,1-.463.2m-7.665.084c-.187-.072-.132-.217-.132-.33.27-.27.246-.746.546-.944.049-.288.235-.306.3-.624.282-.043.384-.481.811-.529.126.2.072.427.084.733.192.012.036.667-.1.8a2.108,2.108,0,0,1,.042.222.98.98,0,0,0-.3.583,1.537,1.537,0,0,0-.168.006c-.253-.318.078-.565.048-.829A1.168,1.168,0,0,0,291.4,39c-.006.024-.012.055-.018.085h.079a1.819,1.819,0,0,0-.055.3c-.084.054-.186,0-.228-.012-.175.084-.349.648-.583.7m-2.788.078a1.03,1.03,0,0,1-.3-.589c-.583,0,.553-1.1.589-1.148a1.221,1.221,0,0,1,.517-.078c.036.048.1.277.156.324.042-.036.042-.036.126-.042a.506.506,0,0,0-.042.282.323.323,0,0,0,.048.036,1.362,1.362,0,0,0,0,.385c-.085.042-.168.09-.253.138-.012.048-.024.1-.036.15-.186.054-.2.1-.361.048,0-.138.031-.12.108-.2-.048-.288-.162-.217-.348-.2a7.006,7.006,0,0,0-.114.841c-.072.06-.072.06-.09.048m7.384.643c0-.373.589-.794.589-1.153-.108-.108-.162-.067-.246-.061V39.5c-.06-.006-.12-.012-.181-.012a.458.458,0,0,0-.006.09c.084.031.084.031.1.061a.8.8,0,0,0-.241.432.732.732,0,0,0-.348.469c-.048.03-.048.03-.168.03-.15-.15.012-.3.12-.372-.024-.019-.043-.037-.06-.049,0-.9-.2-.865.637-1.081a3.939,3.939,0,0,1,1.43-.343c.528.7-.073.986-.073,1.659-.09.072-.36.024-.415.024a3.42,3.42,0,0,1-1.142.385m-2.728.841c0-.361.451-.823.691-1.094.036-.156.055-.126.162-.2,0-.144-.306-.282-.354-.294-.03.066-.03.03-.012.156-.229.162-.229.2-.324.468-.264.1-.235.523-.565.433a1.271,1.271,0,0,1,.192-1.063,2.16,2.16,0,0,1,.631-.475,2.552,2.552,0,0,1,1.184-.54,1.577,1.577,0,0,1,.09,1.514c0,.685-.974.553-1.393.973a.877.877,0,0,1-.3.12m-9.288.282c-.042-.043-.354-1-.354-1.016.15-.21.2-.474.432-.589,0-.264.168-.264.2-.408a.654.654,0,0,0-.1-.024v-.06c.336-.223.721-.4,1.075-.631a2.781,2.781,0,0,0,.367-.031.627.627,0,0,0,.006.1c.306.2.186,1.322.138,1.724h-.169c-.1-.253-.192-.192-.372-.18a1.21,1.21,0,0,0-.03.144c-.15.042-.373.259-.45.234a1.551,1.551,0,0,0,.012-.24.181.181,0,0,1,.06-.024c-.042-.031-.042-.031-.138-.037v-.138a1.183,1.183,0,0,0-.144-.012c-.12.162-.09.2-.12.421a.356.356,0,0,0-.072.03,3.958,3.958,0,0,0-.162.721,1.652,1.652,0,0,0-.187.013m15.008.06c-.186-.108-.342-.048-.415-.108v-.144c.342-.2.4-.528-.03-.571-.126.2-.2.493-.439.6-.324-.162.2-.456-.036-.793,0-.235.6-.511.817-.511a.882.882,0,0,1,.883-.03c0,.09,0,.186.006.282-.264.265-.012,1.1-.546,1.274Zm-9.649.036c-.33-.108.343-1.28-.162-1.28a1.293,1.293,0,0,0-.222.643.479.479,0,0,0-.09-.012c-.048-.469.421-1.436.9-1.514.036.193.15.217.4.312.048.313.451.932.174,1.262a1.715,1.715,0,0,0-.835.571l-.156.018m-2.547.926c-.282-.493.625-1.641.12-1.724-.2.132-.361.769-.439,1.075-.234.012-.211-.379-.337-.48v-.144c-.36-.361.805-1.412,1.082-1.665.144-.36.534-.619.721-.06a1.927,1.927,0,0,1,.4,1.364.845.845,0,0,1-.33.12,1.184,1.184,0,0,0,.012.144c-.144.036-.2.15-.354.18a1.013,1.013,0,0,0-.012.138c-.235.132-.12.072-.12.325a9.434,9.434,0,0,0-.667.727Zm9.607.222a.533.533,0,0,0-.372-.15c0-.228.462-.607.642-.739,0-.1-.06-.174-.06-.247-.049-.03-.049-.03-.193-.048a.672.672,0,0,0-.21.312,5.571,5.571,0,0,1-.7.559,6.415,6.415,0,0,1,.241-1.2c.21-.169.546-.535.852-.535.319-.48.637-.018,1.046-.018.18.18-.168.829-.241,1.081a2.037,2.037,0,0,0-.655.938c-.12.012-.234.03-.348.048m-13.62-.012A2.99,2.99,0,0,1,282.4,41.5c.366-.144.282.36.486.51,0,.078.006.6.1.661a.866.866,0,0,1-.108.27.323.323,0,0,1-.259-.12c0-.2-.137-.27-.18-.379-.072.012-.138.03-.2.048-.024.15.036.373.018.553a1.031,1.031,0,0,0-.138.006.859.859,0,0,0-.078.114.268.268,0,0,0-.06-.012m9.367.433c-.144-.072-.235-.877-.235-1.033.12-.12.1-.468.09-.583-.144-.036-.168-.235-.2-.3-.114.012-.228.024-.342.042.024.247.468,1.724-.2,1.352-.019-.21-.132-.228-.211-.33a1.578,1.578,0,0,1,.258-1.039,1.907,1.907,0,0,1,.553-1.46l.264-.018a3.95,3.95,0,0,1,.384,1.274c.223.564-.18,1.352-.18,1.97a.9.9,0,0,0-.078.12.654.654,0,0,0-.107.006m5.233.475c.066-.372.835-.637.775-1.027-.144-.018-.288-.03-.433-.042a1.432,1.432,0,0,0,.012.162c-.132.132-.667.427-.667.12a2.634,2.634,0,0,0,.36-.541,2.088,2.088,0,0,0,.343-.336,7.369,7.369,0,0,1,1.159-.012c.012.09,0,.607-.187.571a.739.739,0,0,1-.54.51,5.165,5.165,0,0,1-.823.595m-9.367.168a.264.264,0,0,0-.06-.012,1.166,1.166,0,0,1-.012-.138c.09-.09.084-.107.084-.222a3.705,3.705,0,0,0,.312-.595.62.62,0,0,0-.1-.006c-.006-.037-.012-.072-.018-.1-.415,0-.523.589-.577.968a.43.43,0,0,1-.247.078,1.713,1.713,0,0,0-.1-.4l-.108-.036a1.216,1.216,0,0,1-.072-.427c.138-.259,1.045-1.442,1.3-1.472a.482.482,0,0,0,.241.1c0,.265.571,1.117.288,1.4a.6.6,0,0,1,.042.258,4.2,4.2,0,0,1-.793.462.183.183,0,0,1-.03.138,1.2,1.2,0,0,0-.15.012m5.377.157a3.6,3.6,0,0,0-.66-.276.638.638,0,0,1,.042-.355c.277-.018.156.276.439.211.132-.457.9-.883.95-1.25.15-.114.246-.288.384-.4.006-.162.006-.162.03-.18a.646.646,0,0,0-.258-.012,1.624,1.624,0,0,1-.433.354c.006.078.036.1.036.138a.761.761,0,0,0-.27.373,2.193,2.193,0,0,0-.529.348c.006.055.012.108.019.162a.5.5,0,0,1-.391.132c-.439-.546.66-1.562,1.124-1.79a3.492,3.492,0,0,1,1.3-.486,3.472,3.472,0,0,0-.018.4.622.622,0,0,0,.066.037,4.028,4.028,0,0,1,0,.583,3.379,3.379,0,0,0-.367.769c-.2.078-.372.373-.54.4-.018.174-.031.433-.241.5-.168.385-.373.294-.685.349m-8.664.162c-.078-.037-.066-.193-.072-.229-.247-.15-.444-.823-.583-1a2.8,2.8,0,0,1,.661-1.442c.252-.5.793-.823,1.081-.042a.4.4,0,0,1,.2.385l-.072.054a1.217,1.217,0,0,1,.144.024c-.012.1-.012.1-.036.12.2.306.378,1.039-.108,1.231a.312.312,0,0,1-.3.355c0,.228-.168.247-.258.427a.455.455,0,0,0-.085-.012,6.316,6.316,0,0,1-.012-1.058.277.277,0,0,0,.06-.2c-.055-.048-.1-.1-.15-.138-.217.294-.1.3-.114.691-.271.078.024.781-.361.841m5.216.162c-.3-.4.054-1.526-.036-1.616a1.437,1.437,0,0,1-.006-.157c-.391-.042-.2.331-.583.4.055-.312.036-.667.343-.781,0-.33.306-.715.631-.679.018.2.036.4.06.6a.215.215,0,0,0-.06.042v.078c.024.018.048.036.078.06-.084.288.067.7-.078.985.048.031.006.2.018.319-.229.18-.144.708-.366.751m4.71.48a.126.126,0,0,0-.018-.03c-.18,0-.415.03-.415-.12.15-.12.306-.1.456-.253.049.006.1.012.156.024.211-.318.721-.036.763-.595-.361-.042-.439.067-.7.09-.1.156-.463.33-.511.132.12-.144.241-.391.415-.421,0-.367,1.189-.841,1.5-.391a1.7,1.7,0,0,0,.444.108c-.006.156.006.192-.144.241.031.03.061.066.09.1-.006.09-.012.187-.018.283a1.215,1.215,0,0,1-.733.2c-.1.18-.192.36-.283.547a7.225,7.225,0,0,1-1,.078m-11.21.733a.766.766,0,0,0-.319-.462c.012-.06.025-.12.037-.18.072-.006.144-.012.222-.012.006.048.018.1.03.156a.763.763,0,0,1,.241.421.354.354,0,0,1-.21.078m1.141.613A11,11,0,0,1,283,45.455c-.168-.192-.378-.361-.421-.517a.27.27,0,0,0-.066-.006c-.024.055-.049.108-.072.162-.468,0-.156-.54-.078-.7v-.276c-.2-.2.084-.5.186-.625.294,0,.367.3.733.4,0,.409.294.462.361.865l.12.156c-.012.066-.024.132-.036.2.091.09.229.342.391.439-.061.24-.03.595-.073.925a.678.678,0,0,1-.27.048m3.653.541c-.031-.018-.055-.03-.078-.042,0-.4.126-.247.306-.427.055-.451.457-.721.27-1.1-.378,0-.409.45-.516.787-.277.138-.175.522-.523.571a.885.885,0,0,1-.036-.282c.108-.108.048-.2.162-.318a1.523,1.523,0,0,1-.042-.565c-.187-.715.4-1.021.937-1.292.1-.385.619-.229.709.15a1.86,1.86,0,0,1,.1,1.045c-.108.108-.078.282-.24.421a.352.352,0,0,1,.042.2,1.435,1.435,0,0,0-.264.343,1.259,1.259,0,0,0-.54.444c-.1.018-.193.042-.288.066m-1.929.138c-.024-.03-.042-.054-.06-.078a.923.923,0,0,0-.138.03,7.484,7.484,0,0,1,.09-1.845.578.578,0,0,1-.15-.241.278.278,0,0,0-.061-.012c-.1.15-.336-.054-.192.235a5.03,5.03,0,0,0,.06.823c-.012.012-.174.865-.162.9-.03.018-.03.018-.108-.018-.09-.282-.09-.276-.252-.385-.006-.09-.012-.174-.018-.259a1.56,1.56,0,0,1,.36-1.586,2.132,2.132,0,0,1,.421-.522c.03-.349.241-.475.595-.475.126.217.247.12.33.577.187.187.169.649.217.944-.12.12-.055.234-.2.378.072.223.565.126.24.781.006.084.012.174.018.265a.511.511,0,0,0-.06.036c-.12.312-.649.451-.932.451m8.61.265a.308.308,0,0,0-.2-.042c-.054-.505.445-.547.823-.589-.192-.535-.571-.193-.979-.193-.1-.048-.192-.09-.282-.132a1.179,1.179,0,0,1-.012-.138c.523-.348.841-.2,1.394-.174a1.554,1.554,0,0,0,.571.114.153.153,0,0,0,.012.042,1.485,1.485,0,0,1,.162-.006.523.523,0,0,1,.09.324c-.126.085-.1.163-.174.223-.12-.072-.12-.072-.157-.072-.054.108-.114.15-.222.319-.367,0-.385.24-.661.24-.126.126-.216.085-.36.085m2.829.961c-.252-.15-.324-.373-.546-.4-.049-.03-.1-.06-.138-.09-.054-.36.607.2.709-.318a.192.192,0,0,0-.187-.06c-.114-.3-1.033-.037-1.3-.06,0-.516.745-.619,1.136-.577a2.632,2.632,0,0,0,.943.385,2.544,2.544,0,0,0,.372.21.28.28,0,0,0,.012.06h.138c0,.15-.553.715-.655.787-.067.024-.27.024-.487.067m-5.821.919c-.006-.067-.012-.126-.012-.186.211-.043.769-.758,1.027-.883.024-.169.2-.3-.15-.3a.229.229,0,0,0-.042.06c-.385.168-.859.883-1.159.925-.036.055-.036.055-.061.181a1.852,1.852,0,0,0-.186.012,1.7,1.7,0,0,1,.018-1.021.875.875,0,0,0,.174-.3,3.64,3.64,0,0,1,.535-.252,1.479,1.479,0,0,1,.823-.541,1.9,1.9,0,0,1,1.021-.223c.06.163-.042.319.048.493.4.036.18.192.18.522-.089.06-.084.084-.125.187a.529.529,0,0,0-.1.012c-.073.168-.241.21-.217.421a1.786,1.786,0,0,0-.186.024c-.126.259-.421.324-.559.589a.817.817,0,0,1-.283-.012.492.492,0,0,0-.024.09H291.7a1.208,1.208,0,0,1-.583.2m-5.774.042c-.468-.234-.534-.2-.276-.751a3.86,3.86,0,0,1,.294-1.021c.258-.085.319.006.6.006.054.216.114.409-.12.595.066.312-.132.427-.132.685a.531.531,0,0,0,.06.036.933.933,0,0,1-.078.342c-.27.108-.27.108-.349.108m13.3.265c-.174-.409-.421-.4-.66-.642-.283-.037-.373-.025-.373-.27a.841.841,0,0,1,.553-.072c.072.132.072.132.1.15.007-.03.013-.054.019-.078.1.006.186.09.324.09.21-.475-.3-.439-.523-.451,0-.27-.036-.282.2-.4.384-.42,1.027-.036,1.363.367l.162.036c.061.312-.1.823-.5.9-.012.031-.024.067-.037.1a.676.676,0,0,0-.366.27ZM286.59,49.7a.322.322,0,0,0-.073-.024v-.1c.313-.312,1.106-.492,1.376-.877.241-.18.793-.516.9-.8.379-.15.253-.2.462-.343.259-.042.318-.078.367-.33a5.187,5.187,0,0,0,1.4-1.778c.019-.006.037-.012.06-.018.132-.306.336-.956.637-1,.181.168.247.162.294.474-.107.078-.084.048-.12.223-.163.078-.193.234-.223.421-.324.12-.21.54-.553.708-.114.138-.24.229-.27.415a3.04,3.04,0,0,0-.643.841c-.078.03-.15.066-.223.1-.1.312-.937.721-1.189,1.027-.4.078-.823.433-1.2.5a2.264,2.264,0,0,1-1,.559m8.081.042a1.436,1.436,0,0,0-.523-.138c-.192-.175-.192-.2-.379-.2-.18-.18-.775-.1-.775-.288.451-.451,1.424.048,1.778-.36a.689.689,0,0,0-.2-.282,4.173,4.173,0,0,1-1.322.222c-.006-.09-.012-.174-.012-.258.06-.06.234-.186.252-.264.3-.085.252-.15.643-.15.258-.259,1.406.084,1.827.107.024.126.144.181.3.282.012.355-.223.456-.27.745-.324.1-.433.4-.835.487-.1.12-.367.1-.48.1m-33.9.252a1.325,1.325,0,0,1-.025-.138c-.6.481-.619-.433-.451-.745v-.12c.12-.12.2-1.051.379-1.3a.547.547,0,0,1,.1-.06,2.183,2.183,0,0,0,0-.342c.336-.282.294-.812.7-1.124a5.972,5.972,0,0,0,.24-.721,1.489,1.489,0,0,0-.991-.1c-.006-.072-.012-.144-.012-.216a.581.581,0,0,0,.181-.444c.2-.1.222-.138.222-.361.336-.391,1.045-1.28,1.015-1.766-.252-.024-.252-.186-.4-.241.049-.577.559-.727.758-1.124a2.05,2.05,0,0,0,.9-.763,3.036,3.036,0,0,0,.9-.613,2.011,2.011,0,0,1,.2-.042,1.1,1.1,0,0,1,.025-.144c.216-.072.727-.361.781-.583-.042-.031-.084-.055-.12-.078,0-.324-.456-.247-.168-.649.342-.169.709-.553,1.063-.727.577,0,1.22-.667,1.809-.667.24-.126,1.118-.342,1.13-.529-.3-.3-.432-.552-.847-.654-.343-.282-.986-.409-1.166-.649-.529.049-1.388-.787-1.664-1.075a.958.958,0,0,0-.114-.024,4.188,4.188,0,0,0-.787-.776c-.216-.384-1-.937-1-1.273.27-.27.613.264.595-.481-.312-.036-.33-.354-.444-.444a.1.1,0,0,0-.042.024c-.355-.324-.643-.775-.932-1.063-.024-.222-.066-.282-.228-.3a.313.313,0,0,0-.018-.174,1,1,0,0,0-.126-.03c-.06-.481-.457-.961-.409-1.3-.2-.1-.12-.295-.12-.439.12-.12.721.072.721-.282-.21-.265-.421-.433-.6-.661a1.221,1.221,0,0,0-.12-.342c.042-.433-.222-.589-.222-.961a1.6,1.6,0,0,1-.126-.974c.354-.12.324-.012.306-.415a1.877,1.877,0,0,0-.421-.7c.006-.072.012-.138.018-.2a4.175,4.175,0,0,1-.258-1.622,3.55,3.55,0,0,1,.078-.745c.138-.138.036-1.226.553-.811.048.006.1.018.15.03a.5.5,0,0,0,.03.067,7.589,7.589,0,0,1,1.851.462,1.014,1.014,0,0,1,.264.294c.288.192.643.288.865.7.15.072.15.2.45.168a.363.363,0,0,0,.072-.192.537.537,0,0,1-.06-.036,3.142,3.142,0,0,1-.072-.673.527.527,0,0,1,.667.15c.312,0,.265.126.457.282.18-.18.385.385.745.385.27.162.27.42.643.577a.48.48,0,0,0-.061.036.589.589,0,0,1,.156.192.681.681,0,0,1,.1.012,1.272,1.272,0,0,0,.318.462.354.354,0,0,1,.174-.1,1.927,1.927,0,0,1,.229-.823c.126-.012.649.12.721.3.216.054.553.763.8.823.006.036.013.078.019.12.084.048.09.042.125.2h.06a6.144,6.144,0,0,0,.709,1.1.825.825,0,0,0,.006.12.8.8,0,0,1,.042-.108c.12.018.12.018.144.048a.344.344,0,0,0-.084.024c.012.144.072.505.366.505a2.055,2.055,0,0,0,.084-.847c.492-.247.492.559.852.649a1.374,1.374,0,0,1,.211.391c.036.012.072.024.114.042.048.253.51.679.631,1.082a.816.816,0,0,1,.277.522.22.22,0,0,0-.06.043c.012.06.125.559.234.583a1.013,1.013,0,0,0-.012.282c.036.018.072.036.114.06a1.125,1.125,0,0,0,.006.138.244.244,0,0,0,.216.048c.217-.51.319-.036.529.114,0,.235.12.505.12.781.108.072.12.384.12.558-.012.313-.018.625-.024.944.246.3-.15.4.024.66.072.385-.264.559.21.793.415-.1.241-1.8.571-2.193.06-.294.223-.547.24-.781.312-.222.054-.384.384-.546.043-.493.451-1.376,1.034-1.171.132.33.12.36.522.24a1.166,1.166,0,0,0,.114-.528c.247-.108.24-.282.4-.445.138-.036.12-.084.108-.2a1.955,1.955,0,0,0,.522-.541l.162.019c.042-.217.1-.229.282-.319.055-.216.138-.24.355-.294a.76.76,0,0,1,.739-.421c.2.2.048.649.186.853.054,0,.114,0,.174.006a1.482,1.482,0,0,1,.661-.439c.042-.21.607-.312.847-.36.042-.168.03-.15.2-.1a3.212,3.212,0,0,1,1.827-.733v.06h.06c0,.27-.036.517-.036.823.282.223.439-.132.757-.168a1.326,1.326,0,0,1,.986-.342c.144-.043.21-.144.378-.169-.03.1-.054.12-.042.163.559-.409,1.063-.282,1.748-.415a2.309,2.309,0,0,1,.541.048v.085a2.4,2.4,0,0,1,.379-.037c.222.27-.361,1.935-.481,2.283l.084.018a.26.26,0,0,1-.162.1c-.09.559-.5.559-.637,1.021.187.114.2.222.517.247.2.234.03.216.03.516a1.291,1.291,0,0,0-.2.643c-.283.066-.175.36-.427.462a1.771,1.771,0,0,0,.006.18c-.193.138-.324.324-.541.379a.792.792,0,0,1-.613.444.45.45,0,0,0-.03.1,2.357,2.357,0,0,1-.469.151.945.945,0,0,0-.2.33.738.738,0,0,1,.078.03c.156.235.528.186.858.192.013.247.072.409-.2.529-.259.4-1.177,1.315-1.664,1.363-.031.049-.049.025-.031.132a.575.575,0,0,0-.348.193c-.937,0-.607.462.06.462.156.877-.9.9-1.237,1.574-.217.024-.276.192-.45.246-.277.349-1.184.505-1.382.805a5.877,5.877,0,0,1-.66.138l-.037.072c-.486.043-1.015.325-1.49.391-.18.18-.811.2-1,.258-.21.265-.51.186-.8.186-.138-.18-.589.018-.661.12-1.286.168-.859-2.589-.18-2.992.192-.516.991-.871,1.484-1.081.4-.276,1.436-.625,1.9-.343a.559.559,0,0,1,.1-.006.228.228,0,0,0,.006.06,4.5,4.5,0,0,0,1,.186c.174.265,1.268.211,1.466-.042a2.358,2.358,0,0,0,1.039-1,.331.331,0,0,1,.072-.024.36.36,0,0,0-.072-.217h-.078c-.048.067-.187.253-.282.277,0,.211-.031.264-.241.306-.18.3-.336.1-.36.385h-.282a.965.965,0,0,0-.078.138h-.138l-.042-.042a.639.639,0,0,1-.324.03l-.037.054a8.571,8.571,0,0,1-1-.18c-.126-.229-.348-.162-.5-.282a5.525,5.525,0,0,1-.956-.186V32.6a3.357,3.357,0,0,1,1.46-.613c.235-.1.2-.252.523-.282a.528.528,0,0,1,.036-.06,4.789,4.789,0,0,0,1.5-.89c.06-.324.439-.607.492-.9a1.707,1.707,0,0,0,.3-.571c.21-.042.288-.366.318-.522.18-.09.156-.144.2-.3.12-.031.451-.505.522-.613h.138a1.354,1.354,0,0,1,.823-.5,1.384,1.384,0,0,1,.12-.15c-.138-.186-.457.024-.523.126-.66.114-.986.733-1.394,1.2.007.06.013.12.019.18a.5.5,0,0,0-.078.084c-.012-.012-.024-.018-.03-.024-.235.18-.391.823-.559.847a3.3,3.3,0,0,1-.1.36,1.072,1.072,0,0,0-.15.066.45.45,0,0,1-.378.462c-.031.15-.031.15-.055.174-.024-.036-.024-.036-.084-.042a.482.482,0,0,0-.024.09c-.12.024-.1.061-.138.15l-.1.018a.723.723,0,0,0-.03.12c-.211.09-.229.211-.493.211-.072.12-.51.378-.6.312l-.036.09a1.246,1.246,0,0,0-.144-.03.35.35,0,0,0-.03.085,6.478,6.478,0,0,0-1.136.318.7.7,0,0,0-.048.12,1.035,1.035,0,0,0-.77.288h-.12a.218.218,0,0,0-.042.06c-.439,0-.733.493-1.166.6a.364.364,0,0,1-.241.193c-.048.126-.132.126-.24.162-.072.18-.211.252-.319.45a1.42,1.42,0,0,0-.156-.006c0-.306,1.015-1.351,1.238-1.418a1.412,1.412,0,0,1,.066-.168,4.145,4.145,0,0,0,1.16-1.6.186.186,0,0,1,.06-.012c.036-.1.03-.12.126-.168.036-.276.012-.319.24-.463V29.75c.193-.193.469-1.25.114-1.316a4.038,4.038,0,0,1-.312,1.076,2.4,2.4,0,0,1-.583,1.262c.018.024.018.024.018.1-.247.211-.522.895-.727.949-.114.348-.823.577-.956.919a1.162,1.162,0,0,0-.384.379c-.595.4-.535,1.124-.95,1.622a.422.422,0,0,1,.061.024c-.1.4-.451,1.346-.859.529-.247-.036-.283-.036-.337-.15-.066-.012-.125-.024-.186-.03a.4.4,0,0,0-.174-.193c-.006-.06-.006-.12-.006-.18a.325.325,0,0,1-.265-.072c-.186.108-.48-.168-.583-.258-.06.012-.12.024-.18.042-.1-.174-.223-.144-.337-.144a6.428,6.428,0,0,0-1.087-.444c-.048-.265-.373-.385-.373-.624a2.329,2.329,0,0,1-.4-1.142c-.108-.168-.025-.709-.037-.908a.641.641,0,0,1,.1-.078,7.071,7.071,0,0,0-.4-1.965c-.144-.216-.577-1.286-.835-1.286.024.043.054.09.084.138a.062.062,0,0,0-.024.031.666.666,0,0,0-.078-.025c-.012.067.157.535.163.74a1.476,1.476,0,0,1,.162-.013c.018.108.084.151.1.337l.1.018a1.755,1.755,0,0,0,.168.5c.006.175.018.349.03.523a.9.9,0,0,1,.1.03,2.854,2.854,0,0,1,.048,1.256c-.06.06-.036.144-.018.259a.216.216,0,0,0-.06.042,4.476,4.476,0,0,0,.439,1.544,1.518,1.518,0,0,1,.042.222c-.4.4-1.087-1.051-1.13-1.256-.21-.048-.276-.6-.276-.733-.084-.084-.036-.168-.066-.21-.12-.03-.366-.769-.4-.871-.324-.324-.342-.751-.559-.9-.012-.043-.024-.084-.03-.12-.228-.114-.2-.517-.474-.607-.036-.288-.673-.775-.871-.871-.282-.427-.865-1-1.363-1-.049-.048-.049-.048-.078-.162l-.6-.037c-.211.211.913.619,1.165.619a1.76,1.76,0,0,0,.6.583,3.125,3.125,0,0,0,.829.733.677.677,0,0,0,.33.468c.186.3.535,1.328.847,1.484.1.343.265.757.336,1.136.078.036.09.241.09.385a1.8,1.8,0,0,1,.421.763c.366.366-.583.241-.727.229a10.173,10.173,0,0,0-1.388-.511v-.1c-.474-.09-.619-.474-.955-.642-.006-.042-.013-.084-.019-.12-.264-.114-.4-.4-.552-.559a1.19,1.19,0,0,0-.156.067c-.055.433.751.913,1.021,1.3a2.258,2.258,0,0,0,.985.48,1.571,1.571,0,0,1,.541.3c.138.012.288.09.5.1.018.024.036.048.06.078a11.707,11.707,0,0,1,1.346.241,1.23,1.23,0,0,0,.721.366c.277.276.794.2,1.244.421a3.686,3.686,0,0,1,.8.156c.217.325,1.027.415,1.232.92.174.024.895.631.811.889a.63.63,0,0,1-.3-.042l-.162.072c-.006-.036-.012-.066-.018-.1a1.725,1.725,0,0,1-.463.006c-.4.4-1.5-.025-1.94.36a.548.548,0,0,0-.1-.006c-.018-.06-.018-.06-.048-.084a1.2,1.2,0,0,0-.15.06.478.478,0,0,0-.031.09c-.18.031-.222.12-.378.12-.2.276-.589.361-.745.625-.331.3-.643.372-.793.793-.222.15-.457.589-.733.679-.168.162-.2.228-.318.33a3.745,3.745,0,0,1-1.748.462.471.471,0,0,0-.09.012c-.018.12-.018.12-.06.181a.232.232,0,0,0-.067.006c-.03-.037-.06-.066-.084-.1-.138.024-.114.042-.193.15a1.543,1.543,0,0,0-.168.006l-.036.054c.354.252.486.025.859.049a3.665,3.665,0,0,1,1.045-.162,14.926,14.926,0,0,0,1.472-1.028,7.856,7.856,0,0,1,1.322-1.387c.337-.1.463-.373.877-.373a.111.111,0,0,1,.019.031c-.265.354-.7.462-.794.907a4.056,4.056,0,0,0-1.124,1.664c-.354.15-.528,1.106-.949,1.19a2.977,2.977,0,0,1-.643.714c-.2,0-.2-.03-.24.151l-.12.018a1.283,1.283,0,0,1-1.165.5c-.451.312-1.521.48-1.677.95a.962.962,0,0,1-.27.1c0,.067.006.132.012.2a7.112,7.112,0,0,0-1.087,1.124c0,.4-.48.546-.126,1.081.09.012.186.03.282.048.072-.072-.138-.583.048-.709.156-.552.776-.823.92-1.267.107-.055.222-.108.192-.276.036.012.078.024.12.036.024-.132.15-.156.222-.288.258-.054.373-.306.625-.306.1-.156.462-.09.66-.259.733.108,2.289-1.124,2.656-1.754.5-.409.565-.883.961-1.322a4.387,4.387,0,0,1,.895-1.376.9.9,0,0,1,.12.012.552.552,0,0,0,.006.1c-.12.09-.108.2-.144.355l-.144.036c-.1.144.048.457-.108.715-.019.456.18.907.036,1.322a3.907,3.907,0,0,1-.661,1.766c-.228.186-.654.932-.913,1.015-.18.318.138.18.385.18a.921.921,0,0,1,.528-.571c0-.354.475-.577.523-.985a.6.6,0,0,0,.192-.361.709.709,0,0,1,.12-.03,1.348,1.348,0,0,1-.012-.15,2.132,2.132,0,0,0,.259-.865c-.073-.072-.037-.2-.037-.259-.162-.162-.006-1.652.3-1.8v-.1a3.174,3.174,0,0,0,.522-.823c.33-.354.385-.715.956-.775a.974.974,0,0,1,.979-.361c.042-.042.06-.042.162-.042a.433.433,0,0,0,.258.061c.114.113.294-.013.432.234.607.421.12,1.478.012,2.1-.143.036-.4,1.622-.655,1.934-.06.192-.036.6-.241.7v.162a2.274,2.274,0,0,0-.39,1.112.5.5,0,0,0-.1.03,1.013,1.013,0,0,0,.03.1c-.162.078-.162.2-.288.222a.828.828,0,0,0,.006.12c-.288.241-.277.721-.643,1.021-.055.114-.108.066-.168.138a.768.768,0,0,1-.481.7,1.55,1.55,0,0,0-.03.162c-.24.132-.27.342-.553.45-.24.277-.727.847-.829.229a.213.213,0,0,1-.085-.2c-.054-.036-.1-.072-.15-.1-.054.084-.4.757-.517.739-.216.492-.589.637-.883,1-.1.048-.084.03-.132.15-.36.1-.9.7-1.225.564v-.2a.547.547,0,0,0-.066-.03c-.024-.312.006-.361-.144-.583h-.06c-.15.18-.529.583-.763.583a.221.221,0,0,0-.061.042c-.18.361-.546.349-.8.559-.036.06-.073.12-.1.18-.4-.054-.715.331-1,.361-.084.084-.3.042-.36.042-.294-.373.12-.583.066-.991-.042-.1-.084-.186-.126-.276h-.078a7.191,7.191,0,0,0-.565.583c-.3.06-.379.385-.763.385-.108.138-.367.324-.5.192-.078.108-.18.15-.264.282-.421,0-.8.349-1.183.306a4.287,4.287,0,0,1-.937.132m39.153.547c-.084-.084-.042-.2-.042-.247.192-.066.1-.2.072-.342-.222-.138-.469.12-.769-.03a.675.675,0,0,1-.012-.108c.174-.1.709-.45.739-.661.132-.12.2-.216.415-.186.084.126.336.036.4.385a.365.365,0,0,1,.2.042c0,.1,0,.2.006.3-.078.079-.085.217-.186.241a.942.942,0,0,1-.823.607m-2.95.444c-.229-.264-.889-.372-1.082-.565a.808.808,0,0,1-.342-.048,1.191,1.191,0,0,1-.012-.138,2.592,2.592,0,0,1,1.177-.192c.054-.055.03-.175.03-.211-.252-.252-.7.132-.7-.3.349-.282.247-.547.751-.475.144.12.841.042,1.124.324.342.132.649.342.33.793-.06.307-.708.584-.889.794l-.384.018m-9.228.541a.973.973,0,0,1-.336-.12c-.415,0-.962.048-1.118-.348a.851.851,0,0,0-.391-.163v-.06a2.114,2.114,0,0,1,1.3.229,8.743,8.743,0,0,1,1.184-.06c.312-.114.673.193,1-.138.355.024.805-.336.889.373a4.459,4.459,0,0,1-.709.186.133.133,0,0,0-.018-.03c-.138,0-.27.006-.4.012a12.8,12.8,0,0,1-1.406.12m3.653.342a.6.6,0,0,0-.342-.144c-.084-.192-.252-.354-.252-.5.174-.174.637-.1.835-.294l.3.018c.144-.144.318-.018.342-.229a.688.688,0,0,0,.7-.108.694.694,0,0,1,.006-.114c-.228-.114-.456-.156-.571.012h-.24a7.167,7.167,0,0,1-1.442.282,1.4,1.4,0,0,1-.1-.108c.078-.829.294-.685.979-1.039a2.8,2.8,0,0,1,1.561-.036l.325.036c.192.259.666.012.666.637.024.018.055.036.084.061,0,.222-.234.408-.415.54.06.09-.6.294-.618.3.03.427-.475.241-.553.523-.048.024-.048.024-.288.048-.33.037-.661.078-.985.12m7.281.018c-.078-.036-.258-.222-.462-.378-.246-.037-.39-.078-.39-.288a.658.658,0,0,1,.474-.223.693.693,0,0,1,.036.066c.241-.018.486.018.523-.264a1.332,1.332,0,0,0-.421-.042c.006-.12.012-.241.018-.355a.325.325,0,0,0,.18-.1.978.978,0,0,1,1.106.944c-.241.1-.241.421-.619.5-.162.163-.246.138-.445.138m-15.4.481a.855.855,0,0,0-.421-.2,1.547,1.547,0,0,1-.024-.162h-.12c-.036-.342-.409-.486-.409-.883-.4-.4.565-1.238.829-1.454.048-.168.108-.2.229-.294.084-.4.09-.541.5-.631a.728.728,0,0,1,.247.973c.006.1.072.2.09.361l.15-.018a.517.517,0,0,1,.019-.06c.36-.18.534-.427,1.075-.234.7-.06.294.276.252.637-.264.156-.331.126-.444.523a.6.6,0,0,0-.067.036c-.048.342.655.085.841.462-.072.09-.072.072-.09.223.138.108.313.468.031.607-.457-.084-1.094-.427-1.424-.1l-.12.018c-.078-.078-.126-.036-.174-.03-.012.03-.024.066-.037.1a3.486,3.486,0,0,1-.931.126m11.656.24c-.409-.09-.655-.7-1.046-.8a.479.479,0,0,0-.2-.108,1.468,1.468,0,0,1,.006-.162c.391-.126.793.078,1.219.126.138-.108.223-.042.4-.1a.14.14,0,0,1,.018-.03c-.433-.373-.5-.312-1.081-.33-.073-.072-.067-.09-.073-.132.181-.181.258-.288.535-.288a.131.131,0,0,1,.018-.03c.186-.019,1.015-.072,1.166.162.361,0,.265.15.487.318,0,.084-.06.21.12.282,0,.763-.246.342-.589.787a.6.6,0,0,0-.6.253c-.06-.006-.12-.012-.18-.012a.294.294,0,0,1-.2.06m1.766.7-.162-.036c-.072-.186-.253-.192-.337-.27v-.1a3.688,3.688,0,0,0,.655-.3c-.012-.048-.024-.1-.036-.138a2.448,2.448,0,0,1-.445.108c-.21-.27.223-.306.349-.529.247-.2.235-.558.595-.516.114.174.45.006.661.3.03.012.066.024.1.042,0,.3,0,.769-.4.853a1.255,1.255,0,0,1-.986.589m-4.176.361c-.217-.072-.312-.12-.379-.258-.192.036-.324-.03-.427-.006a.346.346,0,0,1,.043-.084c-.09-.042-.181-.084-.27-.12a.51.51,0,0,1-.03-.09c-.181-.036-.193-.12-.211-.229.09-.09.829.1,1.112.12a.937.937,0,0,0,.06.108c.343-.072.565.114.631-.312a2.542,2.542,0,0,0-.991-.132A9.006,9.006,0,0,0,291,52.424c0-.2-.006-.21.2-.24.3.3,1.628-.144,2.145-.2.006.024.012.054.018.085a.823.823,0,0,1,.763.42.766.766,0,0,0,.078.037,3.749,3.749,0,0,0,.025.486,1.085,1.085,0,0,1,.2-.042c.229.282-.462.39-.619.4-.211.258-.715.24-.968.24-.072.072-.247.06-.318.06m2.229.727a.4.4,0,0,0-.054-.049c.006-.03.012-.06.018-.084.108-.061.6-.049.577-.294a2.627,2.627,0,0,0-1.184-.085c0-.2.637-.234.757-.48a1.086,1.086,0,0,0,.342-.252c.27.018.493.1.787.138a.591.591,0,0,1,.006.433.843.843,0,0,0,.354.048c.031.037.12.1.1.2a9.269,9.269,0,0,1-1.7.427m-.565.078c-.018-.024-.03-.042-.042-.06-.259-.018-.949-.126-.949-.349.174-.108.354-.006.528.15.265.037.661-.108.9.072a.548.548,0,0,0,.013.1c-.067.1-.373.084-.451.09M277.74,55.836a1.894,1.894,0,0,1-.415-.229,5.939,5.939,0,0,1,.607-3.028c0-.667.235-1.376.259-2.007a21.376,21.376,0,0,1,.138-2.2c0-.661.156-1.364.114-1.971l-.072-.036a.469.469,0,0,1,.012-.1.188.188,0,0,1,.06-.006c-.06-.986-.234-2.019-.234-2.932a1.346,1.346,0,0,1-.259-.841c-.162-.107-.433-1.147-.583-1.34V40.9c-.114-.113-.078-.131-.078-.24-.391-.288-.367-.889-.793-1.1-.324-.571-.09-.769.1-1.255.258,0,.348.21.619.342.072.294.06.475.391.691.006.084.012.168.024.258a1.466,1.466,0,0,1,.336.944c.3.247.391,1.159.565,1.6,0,.186-.018.247.193.367,0,.066,0,.132.006.2a11.253,11.253,0,0,1,1.015,4.392,2.358,2.358,0,0,1,.066.445.6.6,0,0,0-.1.06,12.518,12.518,0,0,1-.119,2.265v.481A9.759,9.759,0,0,0,279.254,52a1.586,1.586,0,0,0-.3,1.045c.036.037.042.06.055.156.378-.03.378-.306.7-.433.031-.156.643-.462.787-.48.09-.138.21-.12.276-.3.324-.072.811-.541,1.063-.541.1.168.235.132.288.475a.242.242,0,0,0-.18.138,2.27,2.27,0,0,0-1.292.708h-.12c-.024.043-.048.085-.072.132l-.144.037c-.175.258-.457,0-.457.288a.3.3,0,0,0-.2.258c-.373.126-.474.45-.691.746-.259.12-.2.324-.5.444a3.207,3.207,0,0,1-.493,1c0,.138,0,.138-.024.169ZM260.569,63.58c-.27-.228-.486-.144-.553-.45-.36-.5-.138-.751-.138-1.244-.1-.1.006-.2.019-.3a.749.749,0,0,1,.119-.06.783.783,0,0,1,.031-.132.54.54,0,0,1,.522.241.42.42,0,0,1,.078.012.2.2,0,0,0,.186.222c0,.168.529.373.565.944-.1.1,0,.577-.126.769-.247,0-.276-.264-.3-.372-.306-.12-.366-.746-.637-.679-.078.277.084.277.054.559a1.03,1.03,0,0,1,.288.48.684.684,0,0,0-.108.012m13.26.421a.831.831,0,0,1-.174-.492.573.573,0,0,1-.217-.337c-.793-.528.823-1.243,1.2-.967.037.324.385.637.349,1.045a1.272,1.272,0,0,1-.361.18c-.036.126-.048.168-.21.168a.712.712,0,0,1-.078-.306c-.144-.036-.144-.036-.2-.024a1.7,1.7,0,0,0-.192.727.64.64,0,0,0-.108.006m-11.03.559c-.331-.138-.613-.312-.877-.445-.013-.084-.024-.162-.036-.241-.036-.024-.072-.042-.1-.06,0-.361-.09-1.238.12-1.406a.368.368,0,0,1,.012-.084,2.148,2.148,0,0,1,1.292.667,4.157,4.157,0,0,0-.1.541.256.256,0,0,0,.042.036,2.41,2.41,0,0,0-.066.415.921.921,0,0,0-.126-.012.622.622,0,0,0-.661-.493l-.036.072c.168.253.667.6.787.9-.06.126-.126.108-.246.108m2.847,1.118a.279.279,0,0,1-.012-.06c-.253-.126-.427-.583-.583-.66a1.5,1.5,0,0,0-.486-.715c-.379.595.312.643.384,1.178.1.048.132.06.114.228a4.944,4.944,0,0,1-1.165-.54,1.151,1.151,0,0,1-.03-.114,2.125,2.125,0,0,1-.258-1.484c.306-.15.312.168.373-.319.384.025.607.325.943.349.162.276.541.421.679.835.042.024.085.048.132.078a4.4,4.4,0,0,1-.03,1.213.183.183,0,0,0-.06.013m6.741.21a3.208,3.208,0,0,1-.012-.589c.144-.144.33-.757-.072-.619-.1.24.018.534-.3.5-.318-.48-.354-1,.15-1.31.247-.306.607-.648,1.057-.456a2.973,2.973,0,0,0,.349.775,4.374,4.374,0,0,0-.06.583.146.146,0,0,0,.031.018,4.578,4.578,0,0,1-1.142,1.094m1.784.1c0-.349-.294-.619-.192-.829l.132-.018c.12-.583.132-.913.589-1.286.45-.607.54.679.745.781.024.211.174.583-.09.667a.992.992,0,0,1-.15.36c-.066,0-.132,0-.192.006-.067.078-.1.108-.18.12a.261.261,0,0,1-.055-.228c.138-.138.078-.613.012-.745-.108.222-.294.1-.318.607l.1.018c-.09.162-.15.366-.241.547Zm-13.157.324c-.4-.4-1.1-.517-1.219-.95-.24-.168.054-.528-.138-.787.06-.2.06-.336.138-.7.391-.247.541.108.979.229.066.168.132.12.36.12.048.072.15.107.277.18v.528c-.024.006-.042.013-.06.019.072.107.03.414.09.648-.036.036-.072.078-.108.12-.06-.042-.12-.084-.174-.12v-.06c.031-.031.067-.067.055-.1-.09.054-.235-.216-.24-.223-.241-.036-.2.2-.21.385.144.144.156.421.372.529a.225.225,0,0,1-.036.174.378.378,0,0,0-.085.006m6.759,1.021c-.27-.3-.637-1.225-.974-1.171v.12a.425.425,0,0,0-.084.06c0,.061.072.048.114.12a.163.163,0,0,0-.042.048c-.793-.066-.6-.294-.672-1.009.036-.246.108-.45.138-.66.223,0,.817.595.878.907.2.138.84,1.31.708,1.58a.227.227,0,0,0-.066.006m8.687.336a8.753,8.753,0,0,0-.162-1,.944.944,0,0,0-.114-.024c-.006-.048-.012-.1-.018-.138a.465.465,0,0,1,.091-.012.2.2,0,0,1,.06.132c.409.1.33.468.348.9-.072.049-.138.1-.2.144m-6.26.187a2.184,2.184,0,0,1-.312-.853.534.534,0,0,0,.1-.337c.294-.294.456-1.039.859-1.135.27-.547,1.063-.523.889.228a.311.311,0,0,1,.12.2.387.387,0,0,0-.078.06,2.566,2.566,0,0,1-.108.907,1.823,1.823,0,0,1-.547.024.4.4,0,0,0-.06.078.649.649,0,0,0-.108-.006c-.036-.27-.072-.336-.252-.336a.55.55,0,0,0-.21.336l.06.06c-.024.174-.168.769-.348.769m-6.542,0a4.079,4.079,0,0,1-.823-.529,1.173,1.173,0,0,1-.012-.144.271.271,0,0,0-.168.012c-.373-.373-.691-.427-.691-1.015a1.165,1.165,0,0,1-.144-.6c-.072-.072-.06-.084-.06-.12.144-.144,0-.535.144-.763a3.972,3.972,0,0,1,1.286.462,3.486,3.486,0,0,0,.547.462c.006.067.018.132.03.2a.21.21,0,0,0-.06.042.309.309,0,0,0-.006.078.208.208,0,0,1,.12.078c-.018.15.084.336.018.5h.06a.87.87,0,0,0-.09.343c.072.072.06.126.06.258-.066.066-.114.042-.168.048-.217-.252-.264-.5-.493-.727-.042-.211-.144-.241-.192-.361a1.19,1.19,0,0,0-.138-.012.533.533,0,0,1-.162.168c.259.2.457.968.805,1.094a1.458,1.458,0,0,1,.228.517.454.454,0,0,0-.09.006m9.372.643c-.259-.126.547-1.136-.084-1.207-.078.144-.15.667-.391.619-.258-.523-.468-.511-.324-1.088a2.662,2.662,0,0,1,1.159-1.063c.006.048.012.1.018.15.072.03.132.066.2.223a.353.353,0,0,1,.2.036c.03.162.36.523.318.763a.3.3,0,0,0-.079.03,1.847,1.847,0,0,0-.012.187c.055.036.114.072.174.114,0,.06,0,.12.006.187-.24.156-.558.282-.6.583-.2.108-.186.228-.39.2a.246.246,0,0,1-.2.265m-7.4.241c-.427-.168-.589-.673-1.087-.721-.3-.265-.27-1.039-.27-1.376a.282.282,0,0,1,.06-.06c-.03-.241-.12-.462-.12-.643.085-.054.12-.108.253-.108a6.078,6.078,0,0,0,1.3.715c.048.2.054.432.379.336-.06.168-.264.841-.4.871-.114-.258-.535-.961-.763-1a.4.4,0,0,0-.193.276c.12.078,1.31,1.713.835,1.713m9.865.138a.225.225,0,0,0-.06-.006c-.072-.451-.144-.9-.217-1.346-.107-.018-.216-.036-.324-.048-.1-.2-.132-.186-.282-.192-.089-.487-.156-.859.421-1.052.12-.2.283-.24.264-.474.222,0,.241.12.27.361.21.066.516.937.516,1.267.168.211.025.565.025.883a.858.858,0,0,0-.469.589l-.144.018m-13.98.522c-.27-.126-1.274-.4-1.274-.69a4.08,4.08,0,0,1-.342-1.743.643.643,0,0,1-.1-.342c.33-.288-.024-.342.577-.312.048.2.715.283.859.571a1.578,1.578,0,0,0,.3.15.3.3,0,0,0,.012.072c-.2.132-.1.432-.1.685.055.144.252.721-.15.456a3.286,3.286,0,0,1-.2-.619.942.942,0,0,0-.1-.03.424.424,0,0,0-.138-.294c-.547-.085.156.865.186,1.165.108.126,1.064.835.475.931m1.784.643c-.259-.06-.607-.1-.8-.168a2.225,2.225,0,0,0-.4-.661c0-.06.042-.12.042-.162-.036-.024-.072-.042-.1-.06-.06-.516-.24-1.117-.24-1.561.258-.391.757.234,1.117.366a3.849,3.849,0,0,0,.841.493c.012.024-.054.973-.072,1a.74.74,0,0,0-.108.03.863.863,0,0,1-.138-.3,1.038,1.038,0,0,1-.475-.493c-.144-.036-.456-.553-.5-.1a.4.4,0,0,1,.132.264c.15.025,1.094,1,1.033,1.3a.664.664,0,0,1-.33.049m7.7.378c-.27-.2-.3-.654-.589-.847a1.418,1.418,0,0,1,.078-.343l-.078-.078a2.02,2.02,0,0,1,.733-1.611c.469-.7.974.5,1.268.865.054.673-.288.667-.589,1.052-.024-.006-.042-.012-.06-.018a5.532,5.532,0,0,0-.037-.908c-.468-.162-.378.908-.378,1.177q-.1.352-.2.7a1.192,1.192,0,0,0-.15.006m-2.025.181c-.042-.025-.084-.049-.12-.067,0-.312-.258-.721-.054-.865a3.1,3.1,0,0,1,.265-1.8c.066-.865.673-.781.559-.2a2.176,2.176,0,0,1,.265.739c-.078.126-.187.132-.27.349a.821.821,0,0,1-.259-.036c0-.241-.067-.373-.282-.294a2.344,2.344,0,0,0-.012,1.3c-.042.156.024.168.012.33a.179.179,0,0,0-.06.012,1.992,1.992,0,0,1,.024.522.207.207,0,0,0-.067.007m4.915.042c0-.607.211-1.027.2-1.6-.427.03-.379.366-.444.763h-.078c-.054-.066-.108-.132-.156-.192a1.243,1.243,0,0,1,.024-.156c-.565-.421.318-.883.348-1.166a.847.847,0,0,0,.4-.313c.541.067.715.013.691.655a.141.141,0,0,0-.042.042c.012.037.024.078.042.12-.06.1-.054.108-.042.276.06.006.126.018.192.03.33.517-.276,1.064-.739,1.244a.505.505,0,0,1-.4.3m-6.458.36c-.234-.348-.132-1.009-.535-1.249a.261.261,0,0,0-.186-.18.473.473,0,0,1-.012-.085c-.74-.421-.4-1.5-.265-2.1a.208.208,0,0,0,.054-.2,2.164,2.164,0,0,1,.211-.06.512.512,0,0,1,.03-.09h.162c.168.252.474.252.589.715.048.042.15.066.444.259.03.234.517,1.148.241,1.423.018.126.036.252.06.385-.132.108-.126.108-.253.126-.21-.336-.276-1.069-.66-1.142-.132.132-.114.1-.132.312a2.23,2.23,0,0,1,.439.943c.078.078.036.528.1.763-.09.078-.187.186-.288.186m8.909.085a2.15,2.15,0,0,1,.018-1.232.824.824,0,0,1,.09-.066V69.45a.429.429,0,0,0-.312-.1c-.049.054-.1.108-.138.162a1,1,0,0,0-.132-.006.527.527,0,0,1-.061-.324c.288-.288.367-.6.763-.8.042-.2.006-.2.192-.2a2.851,2.851,0,0,1,.168.968c.018.048.036.1.061.156-.163.24-.085.859-.229,1.153a.731.731,0,0,0-.12.012c.067.228.036.265-.054.54l-.247.072m-14.509.7c-.073-.024-.144-.049-.211-.066a1.056,1.056,0,0,1-.03-.114,1.08,1.08,0,0,1-.39-.143c-.006-.031-.012-.06-.019-.084-.564-.156-.967-1.262-.985-1.706a.488.488,0,0,1-.061-.036c.006-.078.012-.15.018-.223.193-.1.451.072.715.1v.12c.085-.006.174-.006.265-.006.132.2.685-.054.265.5-.006.025-.012.054-.018.084.12.1.378.4.33.649h-.1c-.042-.048-.084-.09-.12-.132h-.084c-.241.319.577.625.535,1.046a.694.694,0,0,0-.114.006m4.674.162c-.366-.168-.522-.048-.871-.067-.114-.246-.277-.131-.348-.276-.324-.078-.541-.564-.577-.811-.391-.259-.871-2.415-.324-2.415.222.132.763.324.925.613.216.031.216.031.277.06l-.018.036a1.37,1.37,0,0,0,.457.312c.282.264.144.421.6.535,0,.072-.03.09-.03.18a1.443,1.443,0,0,1,.294,1.25c-.223,0-.282-.156-.4-.186-.036-.234-.277-.288-.4-.3-.03-.282-.348-.528-.348-.781-.126-.1-.108-.12-.12-.2a.419.419,0,0,0-.312.078c.03.067.03.067.03.2a.141.141,0,0,0-.042.042,2.482,2.482,0,0,0,.6.859,1.123,1.123,0,0,0,.757.589.537.537,0,0,1,.049.235c-.031.03-.031.03-.193.048m-1.845.324a2.854,2.854,0,0,1-2.067-.823,2.79,2.79,0,0,1-.541-1.063l.2.018c.265-.21,1.249-.048,1.652.114.043.114.126.162.276.259,0,.1-.036.21.138.24.036.223.2.258.247.565-.241.06-.276-.03-.444-.06-.012-.036-.024-.072-.036-.1a.8.8,0,0,1-.415-.222c-.1.09-.15-.012-.2-.012a.24.24,0,0,0,.241.384c.132.234.871.379.925.655a.833.833,0,0,1,.1.024c-.024.024-.024.024-.084.024m5.762.421a4.08,4.08,0,0,1-.757-.913c-.006-.1-.168-.859-.18-.883a2.733,2.733,0,0,1,.174-1.538c.114,0,.427.486.709.637a1.016,1.016,0,0,0,.354.619c.018.174.294.823-.144.823-.2-.288-.27-.522-.613-.48a1.5,1.5,0,0,0,.342.721c-.054.318.235.523.259,1a1.158,1.158,0,0,0-.144.012m2.283.456-.36-.036c-.367-.486.2-1.418.15-1.893-.15-.09-.144-.1-.27-.084a2.888,2.888,0,0,0-.271,1.424.232.232,0,0,0-.06.042c.019.09-.042.252-.042.4-.042.036-.042.036-.15.048a.279.279,0,0,0-.241-.09,1.587,1.587,0,0,1-.024-.162c-.054-.012-.108-.024-.156-.03,0-.288-.283-.475-.15-.794-.132-.673.48-1.34.673-1.922.27-.18.427-.462.709-.643.024-.036.048-.072.072-.1h.1c.174.306.385.174.486.7a5.05,5.05,0,0,1,.361,1.424.222.222,0,0,0-.06.043,2.05,2.05,0,0,1-.48,1.543.748.748,0,0,0-.288.126m.745.265c-.51-.174.462-.7.229-.931a1.16,1.16,0,0,1,.156-.361,2.569,2.569,0,0,1,.8-1.616.761.761,0,0,1,.12-.012,1.318,1.318,0,0,1,.006-.156c.631-.259,1.021-1.039,1.021.4a2.7,2.7,0,0,1,.024,1.388,1.572,1.572,0,0,0-.312.15.3.3,0,0,0-.012.072c.481.366-.18.631-.468.727-.018-.019-.03-.037-.042-.049-.073.187-.529.331-.7.331-.27-.349.967-1.586.457-1.689-.2.132-.174.132-.252.372a.374.374,0,0,0-.084.025c.006.066.012.132.024.2-.06.036-.12.078-.18.12,0,.324-.229.492-.319.841a1.467,1.467,0,0,1-.468.192M262.336,75.3c-.354-.234-.853-.24-.853-.691.2-.24.354-.216.655-.294.012-.072.024-.144.036-.21.409-.12,1.448-.607,1.9-.288a.27.27,0,0,0,.013.072c-.288.193-1.208.006-1.208.481.186.168.373.048.655.06-.024.078-.043.162-.061.247a1.4,1.4,0,0,0-.8.565c-.15,0-.223.06-.343.06m2.409.421a5.385,5.385,0,0,0-1.136-.589c0-.624,1.659-.991,1.8-.547.036,0,.378.012.252.211-.126.036-1.213-.067-.583.4.193-.024.12-.042.325.018.066-.066.607.049.763.06a.128.128,0,0,1,.018.03,2.682,2.682,0,0,1-1.442.415m7.318.841c-.211-.193-.235-.2-.253-.391a.633.633,0,0,1-.061-.036c-.006-.061-.012-.12-.018-.18a.385.385,0,0,0-.18-.1,7.048,7.048,0,0,1-.324-1.9,2.778,2.778,0,0,1,.318-.487.49.49,0,0,1,.1-.006c.126.108.138.174.15.391-.1.1-.061.192-.061.36.193.193-.1,1.064.2,1.286.06.355.475.661.222,1.064a.457.457,0,0,0-.09.006m-1.04.138a.36.36,0,0,0-.24-.037c-.223-.222-.649-.534-.715-.769-.049-.012-.09-.024-.132-.036-.144-.439-.889-.751-1.015-1.13a2.36,2.36,0,0,1-.619-.745c-.09-.09-.144-.03-.2-.06a1.3,1.3,0,0,0-.15-.433l-.144-.037c-.012-.072.012-.09.024-.15a.723.723,0,0,0-.1-.024.377.377,0,0,0-.241-.336,1.746,1.746,0,0,1-.318-.764c-.042-.03-.085-.06-.12-.084,0-.229.174-.252.373-.27.15.15.108.409.444.457a.839.839,0,0,0,.018.337.891.891,0,0,1,.1.03c.019.06.037.12.061.18a.788.788,0,0,1,.385.655c.072.06.144.12.222.18v.162a3.931,3.931,0,0,1,.944,1.142,7.941,7.941,0,0,1,1.105,1.3c.108.066.216.138.331.21.012.066.03.138.048.211a.227.227,0,0,0-.067.006m-7.924.324a1.494,1.494,0,0,0-.661-.1c-.306-.21-.294-.277-.312-.571.3-.3.282-.444.733-.571.036-.042.2-.12.223-.15a.388.388,0,0,1-.1-.222c.09-.09.072-.132.252-.09a1.243,1.243,0,0,0,.745.312.584.584,0,0,1,.108.282c-.132.156-.211.12-.373.1-.006.072-.012.144-.012.216.03.019.048,0,.072.1.156,0,.276-.078.313.18-.211.12-.337.343-.535.481-.156.006-.306.018-.456.03m7.137.541a1.226,1.226,0,0,0-.571-.288.4.4,0,0,1-.03-.072,2.57,2.57,0,0,1-1.141-.24c-.367,0-.751.163-1-.012l-.018-.216c.3-.367,1.568-.024,2.019-.042a.844.844,0,0,0,.006.12c.048.043.216.043.36.138a.307.307,0,0,0,.012.067A1.159,1.159,0,0,1,270.02,77c.072.126.114.144.307.228.036.1.1.193-.006.331Zm-4.512.5c-.132-.2-.835-.1-1.021-.1-.09-.09-.391-.042-.481-.042-.024-.03-.042-.054-.06-.078h-.144a.714.714,0,0,0-.511-.253l-.018-.2c.193-.168.294-.162.391-.414.247-.055.367-.229.541-.391.672-.354,1.057-.835,1.928-.835.018.024.018.024.343.024a.6.6,0,0,1,.066.27c.415.415-1.213.643-1.334.673-.138.18-.475.048-.475.391.114.113.914-.235,1.178-.235a.654.654,0,0,1,.973.114v.36a.839.839,0,0,0-.132.06c.264.372-1.1.637-1.243.649m-5.738.264c-.222-.156-.678-.168-.739-.312-.144-.049-.288-.138-.342-.138.036-.3.042-.252.246-.439a.451.451,0,0,1,0-.223l-.078-.06c.006-.078.012-.15.018-.223.288-.234.523-.637.907-.763.1-.336.331-.571.409-.811.277-.066.433-.36.763-.36.138.162.294.48.6.48.03.049.03.049.03.132-.223.162-.7.186-.727.48.072.019.078.007.156.126.09-.012.528-.2.589-.126a.6.6,0,0,1-.889.547c-.469,0-.631-.265-1-.288-.006-.03-.012-.054-.018-.078a.14.14,0,0,0-.031.018c.031.27-.12.126.037.384a2.293,2.293,0,0,1,.595.265c.006.031.012.06.018.1l.15.018v.061c-.391.258-.492,0-.559.564.186.138.367-.174.571-.174.06.06.06.06.1.06.042-.09.012-.072.138-.09-.012.085-.108.15-.168.223a1.929,1.929,0,0,1-.264.625c-.175,0-.343,0-.511.006m2.211.643c-.433-.144-.7-.012-1-.36-.061.012-.12.03-.181.048a3.019,3.019,0,0,1,.114-.919c.324-.217.294-.631.847-.673a10.466,10.466,0,0,1,1.009.391v.1c-.229.186-.2.36-.547.444-.4.4.048.264.294.294,0,.114-.421.745-.535.672m1.7.739c-.522-.174-.811-.024-1.033-.589.048-1.2.889-.9,1.809-.739a1.336,1.336,0,0,0-.013.168c-.312.06-1.219.649-.372.589a2.261,2.261,0,0,1,.817-.433c.131-.126.408-.493.583-.187-.138.211-.283.144-.379.481-.229.264-.385.607-.745.649-.1.1-.571.06-.667.06m-5.31.144a3.768,3.768,0,0,0-.823-.2c-.078-.132-.138-.114-.223-.138-.33-.415-.018-.547.15-.889.487-.324.457-.907,1.052-.373.144.012.973.306.973.511a.7.7,0,0,1-.33.12c-.006.018-.012.042-.018.066a.179.179,0,0,0-.06.012v-.078a1.061,1.061,0,0,1-.3.09c-.1.1.025.229.085.391a1.372,1.372,0,0,0,.4.042.519.519,0,0,0-.03.1.322.322,0,0,0-.072.024c-.156.318-.48.324-.8.324m6.794.2c-.36-.27.156-.691.223-.889a.416.416,0,0,0,.241-.361c.24-.1.246-.415.643-.415a1.36,1.36,0,0,1,.589-.252c0,.186-.162.33-.216.522h-.108c-.12.361-.751.367-.445.914a.33.33,0,0,0,.18-.031.352.352,0,0,0-.03.085,9.714,9.714,0,0,1-1.076.426m6.783.318a.952.952,0,0,0-.3-.078c-.8-.36-1.027-.678-1.928-.642a1.064,1.064,0,0,0-.108-.066c0-.288.229-.331.27-.565.462,0,.577-.475,1.286-.229.048-.012.048-.012.15-.132-.174-.354-.583-.961-.535-1.274.367,0,.445-.342.805-.3.03.055.066.108.1.162.541,0,.559.132.667-.414.156-.078.258-.006.444-.019,0-.427-.486-.414-.132-.852.126-.006.252-.006.385-.006,0,.51.679.991.817,1.543.042.018.042.018.125,0-.012.079-.042.1-.042.156.042-.03.042-.03.12-.036.018.2.036.4.06.6l.078.018c-.03.1,0,.181-.108.265a.837.837,0,0,1,.061.3.931.931,0,0,0-.241.541c-.247.229-.444.192-.505.5a5.921,5.921,0,0,0-.528.3.155.155,0,0,1,.018.031,2.06,2.06,0,0,1-.523.1c-.078.078-.36.085-.439.1m-11.475.523c-.27-.06-1.8-.282-1.231-.769V79.9c.228-.229.5-.625.793-.733.235-.288.342-.306.763-.318a.777.777,0,0,0,.487.348.461.461,0,0,0-.006.09c-.2.054-.169.012-.223.18-.21.042-.523.12-.571.312a.614.614,0,0,0,.288.252,2.715,2.715,0,0,1,1.364-.655c-.132.379-.487.462-.571.847-.529.462-.331.667-1.094.667m2.511.54a6.4,6.4,0,0,0-1.009-.186c-.006-.024-.012-.042-.018-.06-.348.012-.33-.156-.372-.361.06-.06.072-.27.084-.324.175-.15.571-.733.769-.733.378.253.931.168,1.328.433-.12.2-.4.2-.583.241-.379.57.486.252.763.162,0,.312-.7.829-.961.829m1,.2c-.433-.577.535-.974.985-1.064.054-.054.036-.06.138-.06.252.745,1.021-.354,1.376-.288-.1.7-.535.733-.95,1.148-.132.03-.192.024-.264.12-.18,0-.378.048-.541.06-.024-.024-.042-.048-.06-.066-.1.15-.565.144-.685.15m34.87,1.982-.324-.018c-.15-.15-.968-.156-1.2-.246a.636.636,0,0,1-.031-.084,1.785,1.785,0,0,1-1.045-.523.244.244,0,0,1-.156.042c-.018-.066-.03-.132-.042-.193a1.189,1.189,0,0,0-.156.031.75.75,0,0,1,.006-.12,1.18,1.18,0,0,1-.312-.361c-.157.06-.2.03-.337.12.012.192.03.385.049.583-.072.072-.337.036-.391.036-.1-.1-.174-.066-.241-.078a2.474,2.474,0,0,0-1.183-.769c-.072-.258-.294-.282-.415-.391,0-.162-.03-.144-.144-.174-.192-.343-.619-.859-.535-1.214-.072-.084-.143-.168-.21-.252-.162,0-.144-.007-.222.054.03.042.03.042.03.12-.174.174-.144.312-.168.613a1.787,1.787,0,0,1-1.022-.565h-.143c-.031-.162-.325-.379-.4-.468-.294-.055-.421-.649-.481-.841-.012.12-.012.12.013.18a.152.152,0,0,1-.108.049c-.108-.108-.012-.234-.012-.313-.168-.276-.211-.637-.493-.69-.048.048-.138.042-.2.048-.024.06-.048.12-.072.186-.294.144-.823-.8-1.123-.883a12.284,12.284,0,0,0-.541-1.207c-.229-1.166-1.069-2.1-1.124-3.19-.234-.234-.144-.95.229-.511.516.223,1.033.355,1.6.643.054.288,1.171.324,1.357.793.427.138.3,1.2.3,1.6.156.09-.042.649.216.865a1.993,1.993,0,0,1,.216.661l.079.018a1.059,1.059,0,0,0,.15.342l.132.018a3.114,3.114,0,0,1,.066.421c.223.156.643.649,1.015.571.012-.084.03-.168.049-.246-.3-.193-.355-.066-.541-.385-.625-.312-.589-1.232-.944-1.64a12.716,12.716,0,0,1-.06-1.647c.048-.528,0-.433.451-.324.042.09.03.072.186.108.144.294.607.607.847,1a.9.9,0,0,1,.517.745l.144.018c.054.2.072.318.354.409,0,.306.655.678.781,1l.1.018c.084.126.415.378.6.565.229.042.4.354.625.048a2.709,2.709,0,0,0-.926-.679,14.079,14.079,0,0,0-1.117-1.322c-.078-.247-.4-.354-.265-.5a3.777,3.777,0,0,1-.739-.841c-.276-.223-.367-.457-.637-.6-.012-.06-.018-.12-.024-.18l.054-.037c.343-.006,1.839-.084,2.109-.421a1.565,1.565,0,0,1,1,.265c.607.18.805.7,1.52.835,0-.492-.426-.361-.48-.7-.282,0-.991-.571-1.243-.7-.361-.018-.355-.12-.6-.018-.306.024-.51.114-.8.12-.361.36-2.451.15-2.848-.06-.384-.025-.787-.181-1.124-.181a2.085,2.085,0,0,0-.823-.492c-.066-.132-.758-.373-.9-.492a.942.942,0,0,1-.914-.89c-.15-.228.12-.781.168-1.021a5.287,5.287,0,0,0,.643-.817.5.5,0,0,0,.342-.09c.132-.439.757-.48,1.045-.835.163-.054.343-.336.523-.2l.336-.018c.2-.318.847-.306,1.226-.264.12.084.12.084.2.1a1.508,1.508,0,0,1,.631-.031.151.151,0,0,0,.012.042,4.048,4.048,0,0,0,1.724-.355c.746-.06,1.538-.973,2.157-1.387.223-.318,1.13-1.142,1.2-1.491-.1,0-.084-.048-.1-.072-.342,0-.241.354-.631.439-.084.373-.288.462-.553.648a5.475,5.475,0,0,1-1.5,1.3c-.318.09-.625.258-.913.313-.024.078-.024.078-.054.1-.024-.018-.042-.03-.06-.042a2.62,2.62,0,0,1-1.82-.054v-.09c.324,0,1.52-1.6,1.55-1.922a15.26,15.26,0,0,1,1.484-2.385l-.018-.144c.306-.168.366-.66.672-.811a3.473,3.473,0,0,1,1.268-1l.018-.072c.336-.108.619-.547.979-.589.162-.247.679-.4.751-.691-.162-.036-.241-.1-.348-.084a2.175,2.175,0,0,1-1.082.691c-.222.336-.354.288-.655.354-.031.229-.631.48-.787.733-.366.247-.709,1-1.045,1.1a.322.322,0,0,0-.042.054c.024.03.1.048.12.078-.072.125-.336.312-.432.444-.031.132-.09.384-.247.421,0,.4-.577.871-.673,1.322-.174.216-.5,1.051-.733,1.051a.16.16,0,0,0-.042.048.281.281,0,0,1,.012.229c-.3.09-.33.282-.492.547a.814.814,0,0,0-.361.282c-.144.024-1.118.745-1.118.228a1.212,1.212,0,0,0,.367-.516,2.392,2.392,0,0,0,.66-1.6,6.934,6.934,0,0,0,.541-1.244c.03-.282.211-.486.235-.7a.337.337,0,0,1,.084-.024,1.092,1.092,0,0,1,.463-.6c.042-.355.522-.193.625-.6-.1-.114-.144-.138-.223-.12-.06.12-.51.33-.613.391-.265.324-.829.871-.829,1.316a.843.843,0,0,0-.222.583c-.126.162-.235.763-.385.883a5.193,5.193,0,0,1-.348,1.069.525.525,0,0,0-.1.03c0,.217-.066.553-.36.6-.006.037-.013.072-.019.108-.15.06-.131.055-.131.234-.385.18-.463.66-.95.829a1.285,1.285,0,0,1-.247.234l-.036-.018c-.318.235-.883.5-1.063.811-.295.114-.715.955-.98.913-.174-.288-.126-.775-.355-.925-.174-.355-.486-.643-.57-.9a1.528,1.528,0,0,0-.163-.03,3.594,3.594,0,0,0-.655-.775,3.969,3.969,0,0,1-.559-1.821,3.415,3.415,0,0,1,.06-1.225c-.126-.487.06-.9-.24-1.364-.078-.246-.241-.306-.241-.54-.4-.156-.745-.974-.829-1.268h-.366c.03.084.03.084.072.12,0,.8,1.2,1.436,1.2,2.307.1.1-.012.7,0,.925a.209.209,0,0,0-.06.042c-.048.655.078,1.226.078,1.9a.948.948,0,0,0-.09.061c-.354-.162-.811-.577-1.118-.613-.258-.457-.907-.709-1.105-1.106-.385-.15-.673-1.148-.932-1.274a5.849,5.849,0,0,1-.552-2.866c-.108-.018-.132-.072-.138-.09a1.212,1.212,0,0,0-.144.03c-.012.072-.025.144-.031.223l-.126.036a1.521,1.521,0,0,1,.024.6c.018.018.036.042.06.066a4.158,4.158,0,0,0,.06.7c.2.2.246.865.445,1.226a3.576,3.576,0,0,0,.853,1.273c.108.193.108.193.151.229.306.1.336.739.931.812.006.072.018.144.03.216.247.108.444.349.757.427a3.051,3.051,0,0,0,.841.541c.018.12.1.192.247.312v.1c-.138.084-.324-.043-.409-.055-.366.211-1.219-.132-1.586-.18a9.676,9.676,0,0,0-1-.571c-.006-.036-.012-.066-.018-.1-.318-.06-.715-.931-.985-.985a2.794,2.794,0,0,0,.06.642.742.742,0,0,1,.12-.012c.072.258,1.249,1.388,1.67,1.388a.253.253,0,0,1,.18-.042c.373.373,1.334.27,1.9.3.073.072.74.373.962.529.036.126.241.258.409.367.042.54.535.426.583.8.018.012.036.024.06.042,0,.433.2.841.175,1.31-.445,0-.307.229-.637-.186a2.872,2.872,0,0,0-.691.15c-.138-.09-.39.012-.516.036a6.213,6.213,0,0,0-1.791-.318,4.466,4.466,0,0,0-1.664-.222c-.15-.15-.138-.138-.276-.138a3.121,3.121,0,0,0-.8-.523,1.385,1.385,0,0,0-.547-.427c-.108-.492-1.13-.763-.469-1.225a.579.579,0,0,0-.486-.6.471.471,0,0,1-.012-.084c-.421-.223-.492-.523-.775-.709-.583,0-.162-.517-.631-.751a.314.314,0,0,1,.012-.072.532.532,0,0,1,.1-.03,1.62,1.62,0,0,1-.324-.817.561.561,0,0,0-.085-.025c0-.2-.066-.324-.066-.462-.03-.024-.061-.042-.085-.06,0-.331.223-.373.517-.373a.16.16,0,0,1,.042-.048.45.45,0,0,0-.072-.042c0-.481-.847-1.118-.847-1.586a2.152,2.152,0,0,1-.318-.944c-.264-.15-.2-.247-.2-.48-.078-.078-.048-.4-.06-.5-.259-.258.006-.427.282-.4.012.024.024.048.036.078a.758.758,0,0,0,.379-.15.314.314,0,0,1,.066-.247c-.048-.234-.229-.522-.2-.709-.2-.1-.349-1.346-.337-1.538-.066-.067-.21-1.376.037-1.436.156-.391,1.033.09,1.4.048.024-.042.024-.042.1-.06a.632.632,0,0,0,.006.1,3.452,3.452,0,0,0,.733.18c.006.03.841.348,1.033.421.054.234.757.595,1.076.649.174.258.445.487.649.835.535.294.427-.457.241-.6,0-.613.9.265,1.2.409a2.406,2.406,0,0,1,.36.421l.163.036c.024.072.012.156.138.2,0,.253.4.481.564.817a.6.6,0,0,1,.078.03.514.514,0,0,0,.229.373,3.13,3.13,0,0,0,.162.54c.27.055.486.373.793.006.2,0,.24.234.444.313.018.078.012.072.126.144.048.3.691.787.853,1.2.042.012.084.024.132.042,0,.217.066.241.156.48a3.245,3.245,0,0,1,.637,1.28c.09.043.114.072.2.193l.2.018c.2-.505.079-1.262.451-1.61,0-.709.7-1.256.974-1.88.03-.012.066-.025.1-.037a.756.756,0,0,1,.577-.486c.024.036.03.06.144.1-.018.084-.037.168-.055.258.114.114-.15.367.193.511l.018.072a2.05,2.05,0,0,1,.2-.03,2.984,2.984,0,0,1,1.232-1.574c.09-.408,1.6-1.628,1.856-1.436.013.061.049.108.15.211-.018.2-.132.889.331.811a17.319,17.319,0,0,1,1.286-1.382c.222-.042.222-.042.283-.085a2.935,2.935,0,0,1,1.442-.781c.15-.114.336-.06.571-.108.012-.03.024-.054.036-.078a.957.957,0,0,1,.138-.012,8.354,8.354,0,0,1,.066.931c.06.144.06.144.055.223a1.1,1.1,0,0,1,.138.006c.006-.025.012-.049.018-.067a.382.382,0,0,0,.324-.174h.12a3.941,3.941,0,0,1,1.46-.739.345.345,0,0,1,.024-.072c.288,0,.949-.324,1.183-.15a1.216,1.216,0,0,1,.156-.03v.144l.085.018a.348.348,0,0,1-.114.241c.012.282.018,1.454-.241,1.646a1.656,1.656,0,0,1-.7,1.106c-.006.048-.012.1-.018.156l.132.132c.415-.042.9-.229.811.451a5.1,5.1,0,0,0-.643,1.484c-.312.1-.558.944-1.111,1.033a.828.828,0,0,1-.253.294,1.179,1.179,0,0,0,.012.138,1.514,1.514,0,0,0,.241.169c.18,0,.421-.1.63.054,0,.432-.781,1.027-.781,1.442-.234.138-.294.33-.45.553a.346.346,0,0,0-.084.012,1.166,1.166,0,0,1-.259.4.306.306,0,0,1-.042-.037c-.2.276-.967.294-.835.764a1.405,1.405,0,0,1,.475.138c0,.252-.09.234-.2.451a.3.3,0,0,0-.078.012,1.843,1.843,0,0,1-.505.649,1.651,1.651,0,0,1-.3.349.3.3,0,0,1,.018.042c-.241.36-.8.535-1.081.913a.915.915,0,0,0-.7.343,2.652,2.652,0,0,0-1.484.841c-.307.108-.337.15-.163.439.2-.03,1.935-.006,2.169.307.138,0,.277,0,.421.006a.352.352,0,0,0-.012.084.748.748,0,0,1,.09.06.331.331,0,0,1,.18-.055,5.149,5.149,0,0,0,1.213.673c.025.06.025.06.013.168-.433.132-.943.138-.421.559.186.018.306.2.522.18.006.042.012.084.018.126.181.036.229.192.4.235a.754.754,0,0,0,.361.306c.162.324,1.033,1.033,1.033,1.417a2.23,2.23,0,0,1-.571.2c-.03.282.138.439.391.642.18.511.684.932.859,1.526a2.292,2.292,0,0,1,.625,1.381c-.138.138-.2.031-.312.031-.066.114-.156.1-.24.1-.126.187-.12.193-.132.469a3.7,3.7,0,0,1,.642,1.567.731.731,0,0,1,.114.769c-.234-.031-.51-.138-.684-.138-.055-.085-.108-.072-.12-.072-.024.114-.15.138-.223.223a1.941,1.941,0,0,1,.15.925,1.391,1.391,0,0,1,.144,1.2,1.54,1.54,0,0,0-.168.006M284.763,97.633c-.078-.216-.577-.4-.727-.384-.006-.031-.012-.055-.018-.079a.76.76,0,0,0-.12.006V97.05a.316.316,0,0,1-.33-.259c.156-.144.33-.174.361-.4.054-.055.054-.055.174-.09a.388.388,0,0,1,.06-.192c-.15-.126-.15-.144-.18-.252a.42.42,0,0,1-.312-.186.8.8,0,0,1,.156-.505c-.03-.282.084-.642.084-.919a4.917,4.917,0,0,1-.1-1.286.733.733,0,0,1-.283-.583.85.85,0,0,1-.211-.294.329.329,0,0,0-.072-.024c0-.223-.433-.607-.577-.7v-.162c-.361-.277-.385-.535-.793-.613a1.061,1.061,0,0,1-.06-.108,1.028,1.028,0,0,0-.138.006c-.138-.318-1.069-.529-1.328-.48-.217-.217-1.346-.019-1.562-.181-.252.126-.282-.018-.462-.018a1.6,1.6,0,0,1-1.021.138,5.805,5.805,0,0,1-.757.312.454.454,0,0,0-.025.09c-.06,0-.084-.03-.144-.042-.03.036-.03.036-.06.162-.217.018-.336.15-.541.174-.012.108-.084.1-.18.084a1.365,1.365,0,0,1-.361.313c-.162.324-.558.546-.781.853h-.162a8.2,8.2,0,0,1-.925,1.051.39.39,0,0,0,.024.042c-.084.09-.241.252-.361.252a1.1,1.1,0,0,1-.12-.529l.138-.036a4.032,4.032,0,0,1,1.094-1.412c.048-.234.048-.228.312-.27a4.217,4.217,0,0,1,1.363-1.063,3.334,3.334,0,0,1,.74-.4c.084-.174.427-.216.6-.421.132.006.45.055.583-.078.372,0,1.676-.27,1.946,0h.078a.153.153,0,0,1,.042-.042c.18.031.979.031,1.142.223a2.51,2.51,0,0,1,1.43.721c.372.072.5.409.757.763.583.049.306-.469.33-.835.1-.1.031-.216.1-.318a3.231,3.231,0,0,1-.12-.925c-.2-.258-.089-.932-.264-1.063-.072-.517-.421-1.021-.421-1.461a.606.606,0,0,0-.09-.042,6.646,6.646,0,0,0-1.34-1.742c-.037-.1-.072-.192-.1-.288-.03-.012-.054-.024-.078-.036-.078-.5-.846-.577-.937-.859-.379-.265-.355-.517-.847-.595-.2-.33-.8-.444-.967-.733-.336-.168-.469-.4-.8-.439v-.084a3.182,3.182,0,0,0-.643-.15,7.083,7.083,0,0,0-1.646-.541,2.039,2.039,0,0,0-.595-.312c-.012-.036-.024-.066-.036-.1-.084-.025-.162-.043-.241-.061-.066-.132-.108-.114-.162-.144,0-.4.276-.4.613-.39.03.042.067.09.1.138a1.384,1.384,0,0,1,.348.037.85.85,0,0,0,.03.1,7.953,7.953,0,0,1,1.046.409c.072.072.258-.036.3.174a3.421,3.421,0,0,1,1.243.553c.5.049.667.373,1.141.529.018.078.085.09.162.21.4.055,1.166,1.027,1.544.9,0-.511-.553-.9-.624-1.352l-.037-.018a1.548,1.548,0,0,1-.03-.162c-.372-.144-.318-.961-.565-1.021-.018-.211-.078-.385-.09-.553a.517.517,0,0,0-.09-.03v-.223c-.156-.126-.078-.132-.078-.24a6.391,6.391,0,0,1-.7-1.9,1.7,1.7,0,0,1-.229-.62c-.2-.036-.072-.415-.216-.522a3.279,3.279,0,0,0-.037-.4L278,75.548v-.085l.078-.018c-.09-.09-.06-.571-.114-.7,0-.451-.2-.877-.2-1.243a.26.26,0,0,1,.042-.037,6.376,6.376,0,0,1-.222-1.525c-.1-.306.012-1.136-.12-1.268a16.7,16.7,0,0,1-.042-1.724,1.119,1.119,0,0,1-.187-.763c.187.036.583.757.908.985.042.1-.012.277.162.36.012.084.024.168.042.259a.138.138,0,0,0-.042.042,10.982,10.982,0,0,1,.21,1.677.269.269,0,0,1,.061.012,5.063,5.063,0,0,0,.294,1.562c-.018.113-.031.228-.043.342.126.126.012.348.259.523-.012.228-.126.3.042.5,0,.373.181.709.181,1.082.132.09.2.889.2,1.1l.12.1a4.715,4.715,0,0,0,.385,1.381,11.741,11.741,0,0,0,.48,1.586,1.536,1.536,0,0,1,.259.523,6.2,6.2,0,0,1,.642,1.219c.054.031.054.031.312.031.09-.138.277-.463.168-.571q-.009-.892-.018-1.785a.221.221,0,0,1,.061-.042,3.66,3.66,0,0,1,.138-.781,6.3,6.3,0,0,1,.306-1.742,8.41,8.41,0,0,1,1-2.589.828.828,0,0,1,.324-.625c-.126-.432.342-.39.342-.757a.691.691,0,0,0,.15-.216l.162-.018c.114-.193.865-1.406,1.148-.691a.88.88,0,0,1,.1.03c0,.475-.715.769-.794,1.292-.03.03-.03.03-.174.072a1.2,1.2,0,0,0-.03.313l-.186.036c0,.336-.036.342-.294.583a3.516,3.516,0,0,1-.1.6c-.132.09-.168.132-.138.324-.192.1-.222.361-.222.583-.157.156-.163.391-.282.481a7.85,7.85,0,0,0-.3,1.183.45.45,0,0,0-.078.078c.018.144.06.223.06.282-.168.168-.216.685-.378.805a1.416,1.416,0,0,1-.042.379c.09.137-.055.684-.043.985-.21.211.247,1.232-.018,1.46a3.142,3.142,0,0,0,.042.565c.031.018.06.037.1.06a2.973,2.973,0,0,0-.036.5,4.742,4.742,0,0,1,.228.907c.042.025.084.049.132.078-.024.03-.048.06-.072.1.024.012.054.024.084.042-.024.138.042.288-.006.421.043.024.055.024.073.144.03.018.066.036.1.06a5.308,5.308,0,0,0,.318,1.064.712.712,0,0,1,.1.024c.025.126.055.252.085.378a5,5,0,0,0,.565,1.1c0,.229.457.9.378,1.106a4.453,4.453,0,0,1,.361,1.081c.114.168.012.577.2.883a24.186,24.186,0,0,1,.739,2.589,6.357,6.357,0,0,1-.12,2.584c.006.06.012.12.024.186l-.036.018a10,10,0,0,1-.349,1.785c-.12.144-.1.125-.1.342-.126.042-.138.144-.138.282a1.236,1.236,0,0,0-.151.006.743.743,0,0,0-.06.09.326.326,0,0,0,.024.042.572.572,0,0,1-.282.06M259.668,110.4c-.5-.306-.253-1.363-.253-1.856a4.126,4.126,0,0,0,.138-.764,10.019,10.019,0,0,0,.625-1.742c-.234-.336-.649.06-.908.042-.006-.06-.006-.12-.006-.181a.781.781,0,0,0-.12.006.8.8,0,0,1-.042-.107c.024-.012.054-.025.084-.037a5.717,5.717,0,0,0,.108-1.069,2.749,2.749,0,0,0,.361-.944,1.3,1.3,0,0,0,.342-.619.523.523,0,0,0-.252-.174c-.1.066-.223.018-.3.012a1.366,1.366,0,0,0,.09-.583,3.627,3.627,0,0,0,.223-.781,5.614,5.614,0,0,1,.66-1.2v-.12c.265-.265.235-.553.535-.715a.726.726,0,0,0-.036-.313c-.391-.03-.391-.03-.439-.06-.012-.048-.019-.1-.025-.138a2.09,2.09,0,0,0,.295-.775c.175-.055.307-.565.349-.709.379-.282.294-.439.577-.794a10.429,10.429,0,0,0,.943-.816c.3-.06.235-.229.7-.247.168-.342.817-.03,1.189-.252a1.76,1.76,0,0,1-.006-.18c-.354,0-.666-.354-.865-.21-.318-.1-.522-.049-.781-.223a3.349,3.349,0,0,1-1.586-.823c-.048-.012-.1-.024-.138-.036-.036-.21-.036-.21-.06-.247-.385-.072-.535-.583-.758-.769a.274.274,0,0,1,.013-.078c.21-.09.823-.211.823-.421-.2-.1-.21-.276-.462-.373-.066-.235-.1-.21-.235-.288a3.85,3.85,0,0,0-.781-.985,3.24,3.24,0,0,1-.258-.7c.241-.1.889.06.829-.3a5.268,5.268,0,0,1-1.3-2.319c.805,0,.529-.4.385-1.009a4.36,4.36,0,0,1-.481-1.928c-.192-.144-.114-.348-.108-.5.234-.061.522-.241.763.048a4.2,4.2,0,0,0,.642.06c.018.031.037.067.06.1a1.1,1.1,0,0,1,.66.217c.565.048.823.649,1.3.937.138-.12.252-.192.252-.36-.223-.223-.192-.511-.324-.643.036-.259.108-.216.4-.174.138.186.516.216.841.252a.383.383,0,0,1,.019.042,4.288,4.288,0,0,1,1.544.637.349.349,0,0,0-.012.084.6.6,0,0,1,.4.324c.24.079.288.493.637.247a1.544,1.544,0,0,0,.06-.613c.072-.006.144-.012.216-.012.114.114,1.292.648,1.334.877.517.192.914.84,1.478,1,0,.131.042.162.18.3l.078-.019a.583.583,0,0,0,.024.084c.169.042.2.18.409.312v.1a1.534,1.534,0,0,1,.391.33c.054.006.085-.018.162.061,0,.132.409.781.6.816a6.787,6.787,0,0,0,.739,1.4l.084-.018a6.284,6.284,0,0,1,.288,1c.018.012.036.024.06.042.025.2.385.571.282.739.031.174.132.186.1.462-.078.018-.156.037-.229.061-.018.228-.084.468-.108.721-.5.288-2.512.318-2.9-.132-.253-.036-.282-.144-.355-.306-.378-.138-.624-1.31-.6-1.6-.235-.553.168-1.171.2-1.688.078-.138.078-.138.072-.192a.629.629,0,0,0-.1-.006v-.06h.1c0-.4-.223-1.039-.571-1.166-.024-.144-.324-.312-.385-.3-.048.1-.15.1-.228.108-.036.216.39.216.486.51a1.465,1.465,0,0,1,.306,1.124c-.21.427-.2,1-.4,1.448.025.078.415,1.076.193,1.13-.427-.373-.5-.913-.817-1.232a2.408,2.408,0,0,0-1.112-1.021,1.921,1.921,0,0,0-1.5-.552c-.018-.025-.03-.043-.042-.061-.343.024-.823.03-.9.409a.638.638,0,0,1,.072.06,2.046,2.046,0,0,1,1.406.09.7.7,0,0,1,.12-.06,4.716,4.716,0,0,1,1.892,1.64,1.324,1.324,0,0,1,.324.757c-.553.312-2.9.486-3.016-.12-.252-.036-.222-.234-.366-.336a.862.862,0,0,0-.132.06c-.006.048-.012.1-.018.156l.06.06c.241.727.889.811,1.6.9a.621.621,0,0,1,.282-.084.3.3,0,0,0-.006.072c.439,0,1.814-.439,2.055.042.168.012.282-.078.535.049a2,2,0,0,0,1.508.8c.577.349,1.31.036,1.983.036.078.1.072.169.072.355-.222.168-.24.534-.552.691,0,.33-.541.528-.823.54-.09.072-.174.144-.259.223-.691-.2-1.772.619-2.547.619-.144.144-.421.048-.583.144-.061.15-.709.156-.926.457h-.18c-.042.258-.95.7-1.142.7-.126.234-.235.217-.36.343-.409.143-.793.769-1.058,1.135a7.092,7.092,0,0,1-.607,1.16c.018.012.036.024.06.042-.006.072-.006.144-.006.222.067-.006.132-.012.2-.012a.81.81,0,0,0,.024-.259.962.962,0,0,0,.445-.775,1.575,1.575,0,0,0,.373-.6l.09-.018a3.624,3.624,0,0,1,1.821-1.256,2.546,2.546,0,0,1,1.55-.793c.019.144.042.162.031.228a.623.623,0,0,0-.457.324.147.147,0,0,0-.144.018c-.006.037-.013.078-.019.12a2.11,2.11,0,0,0-1.033,1.676c-.054.036-.107.078-.162.12-.018.2-.138.378-.18.625a5.589,5.589,0,0,0-.541,1.665,1.88,1.88,0,0,0-.24.823c-.042.006-.673,1.22-.805,1.406-.234.024-.234.15-.348.336-.331.156-.4.162-.583.451a.372.372,0,0,0-.331.114c.018.2.018.2.06.282.066,0,.138,0,.21.006.373-.468,1.2-.7,1.394-1.292a4.929,4.929,0,0,0,.919-2.084c.132-.27.061-.433.264-.661a6.791,6.791,0,0,1,.7-1.887c0-.348.21-.462.276-.727a.992.992,0,0,0,.222-.336c.318-.211,1.154-1.171,1.58-1.106l.018.036a1.79,1.79,0,0,0-.21.728.485.485,0,0,0-.18.48.242.242,0,0,0-.067.042v.259c-.126.084-.1.06-.156.222a10.577,10.577,0,0,1,.078,2.1c-.043.4-.084,1.52-.373,1.808a2.354,2.354,0,0,1-.8,1.761.113.113,0,0,1,.019.03.9.9,0,0,1-.529.336c.006.042.012.09.018.138-.03.024-.03.024-.108,0l-.018.09h-.12a1.044,1.044,0,0,0-.1.132c.2.2.595-.06.811-.138.006-.049.012-.1.018-.144a3.142,3.142,0,0,0,1.244-2.205c.27-.27.15-1.549.324-1.682-.144-.511.15-1.628-.1-1.989a.593.593,0,0,1-.013-.1c.078-.054.505-1.436.6-1.664.186-.24.2-.468.492-.595a2.4,2.4,0,0,1,1.346-.619,4.271,4.271,0,0,1,.739-.24,1.089,1.089,0,0,1,.505-.282,3.423,3.423,0,0,0,.991,1.376,1.833,1.833,0,0,1,.09.24c.27.108.09.492.379.565.048.7,1.207,2.187,2.067,2.253.162.144.468.528.745.558a.327.327,0,0,1,.037-.048c-.325-.421-.337-.811-.859-.853-.577-.541-1.479-.775-1.479-1.712-.2-.156-.336-.408-.246-.595l.259-.018c.33.33.943.2,1.405.2.006-.024.012-.048.018-.066a14.258,14.258,0,0,1,1.965.379c.09.186,1.136.277,1.448.631a1.282,1.282,0,0,1,.486.132c.006.036.018.078.03.12a6.171,6.171,0,0,1,.625.841.4.4,0,0,1,.078.012c.325-.325-.18-.655-.276-.883h-.144a.981.981,0,0,0-.678-.553.273.273,0,0,1-.012-.061,11.389,11.389,0,0,0-1.754-.631,9.958,9.958,0,0,0-1.106-.264c-.078-.03-.078-.03-.156-.12-.2.037-1.118.229-1.16-.006a10.331,10.331,0,0,1,.955-.613c.013.012.031.048.108.03.036-.09.078-.174.12-.259a3.305,3.305,0,0,1,2.078.331.527.527,0,0,0,.505.048,4.07,4.07,0,0,0-2.151-.853.69.69,0,0,1-.457.1,8.856,8.856,0,0,1-.883.535.172.172,0,0,0-.012.06c-.144.042-.193.144-.313.144a.958.958,0,0,0-.078.132c-.336,0-.859.3-1.082-.072-.426-.192-.841-.18-.9-.667-.595-.595.156-1.7.156-2.349.049-.049.049-.084.144-.06.06.427.4.535.811.27.192-.024.456.012.486-.192a7.467,7.467,0,0,0,1.665-.313l.9-.018a9.824,9.824,0,0,1,1.827,0c.216.217.811-.2.769.433-.252.072-.595.319-.252.565l.7-.036c.054.072,1.226.312,1.508.4a2.517,2.517,0,0,0,.8.3c.024.036.054.072.084.114h.06a.312.312,0,0,1,.018-.043c.024-.006.048-.012.078-.018,0,.487,1.964.751,1.328,1.454-.361.043-.078.27-.361.349a.4.4,0,0,0-.1.24,2.174,2.174,0,0,0,.816.331,1.479,1.479,0,0,0,.643.372c.012.036.024.078.036.12.067.006.132.018.2.03a3.5,3.5,0,0,0,.944.794c.048.21.462.715.33.985-.09.018-.09.054-.132.108h-.078a.487.487,0,0,1-.282.078c-.294.2-.661.294-.907.492l-.037-.072a3.233,3.233,0,0,0-1.105.24c-.967,0,.222.595.162.847a.479.479,0,0,0-.084-.012c-.06.162-.427.294-.577.27a.658.658,0,0,1-.583.1c-.1.12-.144.1-.258.1a.229.229,0,0,0-.042.061,8.478,8.478,0,0,1-2.986-.18.378.378,0,0,0-.264-.12c-.138.114-.132.114-.174.312.246.138.5.492.852.642a.594.594,0,0,0,.013.1c-.211.312-1.443.114-1.755.15-.462-.247-1.166-.265-1.466-.667a2.206,2.206,0,0,0-.757-.276c-.018-.025-.03-.043-.042-.06h-.06c-.036.036-.072.072-.1.108.084.12-.163.18.192.366,0,.15.066.163.1.319-.169.168-.175.066-.349.066a3.518,3.518,0,0,1-.943.042c-.072-.072-.078-.042-.12-.048v-.06c-.073-.006-.144-.012-.217-.012a.462.462,0,0,0-.384-.229.761.761,0,0,1-.031-.078c-.348-.066-.595-.324-.913-.4-.012-.067-.5-.415-.583-.535a.874.874,0,0,0-.138-.462c-.595,0-.457,1.033-.553,1.418a5.821,5.821,0,0,0-.084.979,1.067,1.067,0,0,0-.259.643c-.192.15-.162.312-.162.565a1.067,1.067,0,0,0-.217.559,2.315,2.315,0,0,0-.366.36c-.012.15-.186.763-.409.415-.048-.012-.09-.024-.132-.03a1.676,1.676,0,0,0-.324-.9c-.282,0-.342.247-.415.493a4.785,4.785,0,0,0-.745,1.142,3.405,3.405,0,0,0-.968.955c-.409.072-.577.529-.979.349-.228-1.382-.6-.174-1.087.042,0,.348-.7.6-.781.794a.823.823,0,0,0-.132.03,1.349,1.349,0,0,1-.794.427.216.216,0,0,0-.042.06c-.211,0-.229-.15-.27-.265-.763-.216-.367.2-.811.265-.228.288-.564.265-.823.523-.4.09-.529.282-.9.4-.312-.156-.649.282-.943.282m2.385,7.03a2.9,2.9,0,0,0,.108-.559,1.743,1.743,0,0,0,.264-1.106.581.581,0,0,1,.1-.078c-.067-.288-.156-.15.06-.421-.066-.265.114-.661.084-.962.107-.066.107-.12.138-.2a.367.367,0,0,1-.019-.342c.126-.847.547-.307,1.154-.493a3.866,3.866,0,0,1,1.5-.138,2.747,2.747,0,0,0,1.1-.372,9.548,9.548,0,0,1,1.2-.391c.21-.21,1.586-.583,1.646-.829a2.762,2.762,0,0,0,.583-.294c.09-.018.186-.03.282-.042a7.345,7.345,0,0,1,1.646-1.021.647.647,0,0,1,.439-.241c.2-.4,1.105-.619,1.346-.955a8.357,8.357,0,0,0,1.466-1.171,4.353,4.353,0,0,0,1.231-1.094,3.12,3.12,0,0,0,1.034-1c.3-.054.433-.444.69-.637a12.466,12.466,0,0,0,1.46-1.911,1.109,1.109,0,0,0,.517-.168c0-.366-.277-.378-.277-.672a8.642,8.642,0,0,1,1.039-.049c.3.2,1.1-.162,1.31.049,0,.126-.318.619-.469.648,0,.18-.276.336-.33.577.018.06.018.06-.012.108-.06.006-.12.018-.181.03.007.012.013.024.025.042-.163.229-.5.475-.583.727-.043.019-.084.037-.12.055l.018.036a4.159,4.159,0,0,0-.655.829c-.414.1-.433.522-.793.763a.474.474,0,0,0-.006.1c-.312.042-.48.571-.715.648-.18.15-.355.385-.553.439a.985.985,0,0,0-.024.126l-.144.018a2.315,2.315,0,0,1-.168.253c-.306.09-.306.247-.535.391-.006.06-.012.12-.018.18-.445.09-.8.613-1.177.9a.475.475,0,0,0-.024.09,1.64,1.64,0,0,0-.685.48c-.144.036-.144.084-.18.223a3.361,3.361,0,0,0-1.135.913c-.342.2-.457.18-.709.51-.312.09-.306.337-.655.451a.734.734,0,0,0-.042.12c-.324.06-.8.541-1.069.733-.18.018-.18.018-.223.049.03.042.03.042.03.12-.066.066-.21.031-.246.031a8.32,8.32,0,0,0-1.088.684,1.955,1.955,0,0,0-.3.031,1.54,1.54,0,0,0-.03.162c-.18-.072-.318.18-.589.156,0,.2-.823.625-.985.607-.156.409-.829.3-.979.607-.24,0-.2.15-.522.09-.09.372-.967.486-1.286.715a1.287,1.287,0,0,0-.679.3c-.186-.024-.186-.024-.247-.012l.043.042a1.6,1.6,0,0,1-.415.18.508.508,0,0,0-.024.09l-.085.018a.532.532,0,0,0-.036.06l-.18-.018c-.138.235-.258.181-.426.3-.073.15-.073.15-.1.175-.042-.024-.085-.042-.12-.06-.006.18-.042.174-.2.187a.233.233,0,0,0-.036-.043c-.15.036-.241.2-.445.252m-1.484.751c-.763-.27-.318-1-.372-1.568a1.725,1.725,0,0,0,.21-.8.767.767,0,0,0,.312-.529,4.5,4.5,0,0,0,.5-.781c.174-.024.372-.379.415-.541.18-.072.354-.252.583-.217.288.505.048.709.048,1.178a3.3,3.3,0,0,0-.138,1.561.06.06,0,0,0-.03.025c-.061-.061-.09-.031-.114-.025-.018.09-.084.421-.247.391l-.054.036c0,.282-.223.487-.223.758-.277.234-.462.51-.889.51" transform="translate(-208.166 -16.108)" fill="#009035" fill-rule="evenodd"/>
</svg>
