<svg width="1321" height="165" viewBox="0 0 1321 165" fill="none" xmlns="http://www.w3.org/2000/svg">
<mask id="mask0_1311_3" style="mask-type:luminance" maskUnits="userSpaceOnUse" x="0" y="0" width="1321" height="165">
<path d="M1320.71 0H0V164.775H1320.71V0Z" fill="white"/>
</mask>
<g mask="url(#mask0_1311_3)">
<path fill-rule="evenodd" clip-rule="evenodd" d="M397.724 117.824V153.11H376.959C352.133 153.11 336.814 146.44 323.297 130.103C312.798 117.175 307.363 102.457 307.363 86.5315C307.363 67.3826 315.226 49.0177 329.16 35.9095C341.053 24.6063 355.563 18.9659 373.33 18.9659H397.724V54.6495H385.598C368.29 54.6495 357.162 60.3153 354.37 70.6258H397.724V102.054H354.37C356.984 112.373 366.663 117.824 382.391 117.824H397.724ZM457.639 153.11H416.089V18.9659H458.646C480.812 18.9659 496.966 24.6063 509.076 36.5215C522.161 49.4209 529.64 67.5715 529.64 86.9405C529.64 123.431 503.021 153.11 470.344 153.11H464.3V115.396H466.739C471.934 115.396 478.987 110.768 482.264 105.085C485.054 100.06 486.661 93.5989 486.661 86.5315C486.661 68.2004 476.582 56.4855 460.659 56.4855H457.639V153.11ZM609.307 16.3432C647.044 16.3432 678.511 48.0109 678.511 86.1536C678.511 124.485 647.044 155.764 608.738 155.764C569.791 155.764 538.329 124.655 538.329 86.3539C538.329 47.2015 569.577 16.3432 609.307 16.3432ZM608.117 57.3061C593.371 57.3061 581.252 69.9969 581.252 85.7419C581.252 101.653 593.591 114.79 608.738 114.79C623.45 114.79 635.552 101.653 635.552 85.9393C635.552 69.8136 623.45 57.3061 608.117 57.3061ZM689.617 153.11V115.576H718.654C723.27 115.576 724.48 115.576 726.316 115.204C730.149 114.581 732.577 112.141 732.577 109.132C732.577 106.924 732.577 106.682 725.098 100.666L707.971 86.5315C694.248 75.2509 689.617 67.2021 689.617 55.2559C689.617 32.8778 707.156 18.9659 735.608 18.9659H774.549V56.4855H749.938C740.437 56.4855 737.616 57.6925 737.616 61.119C737.616 63.3526 739.199 65.1434 744.475 69.1875L760.835 82.1067C775.125 93.5989 780.576 102.88 780.576 115.802C780.576 138.581 761.794 153.11 732.371 153.11H689.617ZM300.025 19.4313L275.673 125.083C270.879 146.175 261.674 155.764 242.308 155.764C223.133 155.764 213.928 145.984 209.137 125.083L184.977 19.4313H228.119L237.513 73.1216C238.281 77.146 239.815 88.4605 242.308 106.676C245.184 87.1181 247.102 75.8036 247.486 73.1216L256.691 19.4313H300.025ZM129.501 80.0593C128.08 66.2827 121.794 53.8853 112.385 44.59C101.652 33.9495 86.8122 27.3531 70.4778 27.3531H70.4665C54.1378 27.3531 39.3065 33.9495 28.5589 44.59C17.8112 55.2192 11.1359 69.8897 11.1359 86.0465V86.0578C11.1359 102.223 17.8112 116.882 28.5589 127.523C39.3065 138.16 54.1378 144.751 70.4722 144.751H70.4778C85.1765 144.751 98.6682 139.421 109.055 130.602C112.157 130.382 115.894 125.605 128.895 124.962L128.883 124.968L128.872 124.985C127.093 127.585 125.141 130.061 123.037 132.393C120.97 134.694 118.714 136.886 116.269 138.953C103.933 149.424 87.929 155.764 70.4778 155.764H70.4722C51.0638 155.764 33.449 147.935 20.6906 135.312C7.91523 122.68 -0.000976562 105.249 -0.000976562 86.0578V86.0465C-0.000976562 66.8468 7.91523 49.4209 20.6934 36.8007C33.449 24.1691 51.0638 16.3432 70.4665 16.3432H70.4778C89.889 16.3432 107.504 24.1691 120.265 36.8007C130.028 46.4598 136.65 58.9136 139.264 72.8876C140.206 79.0891 137.316 90.2542 124.978 98.0435C117.91 101.966 113.956 103.326 108.951 103.326C104.999 103.326 102.763 102.471 98.4567 99.4084C94.1559 102.984 91.739 105.029 87.4326 108.785C78.3151 116.781 72.9708 120.049 68.498 120.049C65.4015 120.049 61.9524 117.669 60.2265 114.231C59.1971 112.364 58.8474 110.311 58.8474 106.907C58.8474 105.198 59.1971 100.94 59.5412 97.3723L46.9745 109.632C40.7702 115.247 36.9799 117.472 33.0232 117.472C28.8945 117.472 23.209 114.231 20.104 109.964C17.5235 106.735 16.6718 103.839 15.9724 97.8771V95.6632C15.9724 94.6452 16.1473 92.7613 16.3193 90.5531C17.5235 83.404 19.9376 78.4546 24.4132 73.1696C36.805 58.8685 45.4206 52.0522 51.1061 52.0522C53.3368 52.0522 56.9523 52.8982 59.0251 53.7555C60.5762 54.6157 61.27 55.6225 61.27 57.1623C61.27 63.299 53.3368 71.9823 31.9882 89.363L31.3001 92.0901C30.0987 95.8353 29.9295 97.0254 29.9295 98.5567C29.9295 100.429 30.9532 101.966 32.3351 101.966C33.0232 101.966 34.0554 101.453 35.2596 100.599L39.91 97.5302C47.3158 92.9361 65.2267 76.0687 73.4869 66.0176C79.1696 59.0377 81.7528 56.6462 83.648 56.6462C84.3333 56.6462 86.5697 57.34 88.1292 57.8476C90.36 58.6908 91.395 59.551 91.395 60.9018C91.395 61.5956 90.36 63.299 87.2578 68.5783C78.6535 82.5438 72.1135 96.1709 72.1135 100.094C72.1135 102.136 73.4869 103.839 75.21 103.839C77.7877 103.839 80.887 101.281 91.5642 90.8887C91.223 89.363 91.0537 87.9952 91.0537 87.1463C91.0537 78.6266 107.064 58.5273 113.784 58.5273C116.881 58.5273 119.295 61.934 119.295 66.6945C119.295 73.5165 117.91 76.4128 107.752 90.5531C110.16 93.1082 112.462 94.7044 115.33 94.1319C122.843 92.6175 129.431 84.659 129.501 80.0593ZM144.578 9.01074C153.402 9.01074 160.571 16.1599 160.571 24.987C160.571 33.8141 153.402 40.9717 144.578 40.9717C135.756 40.9717 128.599 33.8141 128.599 24.987C128.599 16.1599 135.756 9.01074 144.578 9.01074ZM144.578 38.5153C152.051 38.5153 158.114 32.4604 158.114 24.987C158.114 17.5192 152.051 11.4615 144.578 11.4615C137.116 11.4615 131.055 17.5192 131.055 24.987C131.055 32.4604 137.116 38.5153 144.578 38.5153ZM142.358 25.661H140.982V31.8992C140.982 32.7227 140.804 33.3291 140.443 33.7098C140.08 34.1046 139.609 34.2964 139.022 34.2964C138.399 34.2964 137.905 34.099 137.564 33.6872C137.223 33.2868 137.048 32.6889 137.048 31.8992V16.9495C137.048 16.1091 137.234 15.4858 137.623 15.1079C137.998 14.73 138.61 14.5383 139.462 14.5383H145.869C146.746 14.5383 147.499 14.5806 148.128 14.6511C148.754 14.73 149.318 14.8739 149.832 15.1079C150.43 15.3674 150.977 15.7312 151.439 16.2078C151.91 16.6844 152.263 17.2428 152.511 17.8717C152.756 18.5062 152.875 19.1746 152.875 19.8797C152.875 21.3236 152.469 22.4883 151.653 23.3598C150.83 24.2171 149.598 24.8347 147.928 25.19C148.633 25.568 149.296 26.1207 149.925 26.837C150.565 27.5646 151.135 28.3345 151.639 29.1524C152.136 29.9618 152.522 30.7035 152.798 31.3719C153.08 32.0233 153.221 32.4745 153.221 32.7227C153.221 32.9822 153.143 33.236 152.973 33.487C152.81 33.7352 152.593 33.9354 152.305 34.0792C152.02 34.2287 151.699 34.2964 151.324 34.2964C150.889 34.2964 150.511 34.192 150.212 33.9918C149.913 33.7803 149.654 33.5236 149.431 33.1937C149.22 32.8863 148.926 32.4069 148.551 31.7949L146.98 29.1637C146.411 28.1992 145.906 27.4716 145.46 26.9696C145.015 26.4676 144.555 26.1207 144.095 25.9318C143.639 25.7484 143.063 25.661 142.358 25.661ZM144.614 17.4938H140.982V22.8408H144.507C145.46 22.8408 146.253 22.7534 146.893 22.5955C147.539 22.4178 148.032 22.1471 148.374 21.7551C148.715 21.3603 148.878 20.8216 148.878 20.1278C148.878 19.5977 148.749 19.1154 148.475 18.7065C148.199 18.2947 147.821 17.9873 147.339 17.7843C146.87 17.5897 145.971 17.4938 144.614 17.4938Z" fill="#0220AA"/>
<path fill-rule="evenodd" clip-rule="evenodd" d="M812.473 103.521V38.364C812.473 22.1648 825.624 9.01318 841.823 9.01318H1290.39C1306.59 9.01318 1319.74 22.1648 1319.74 38.364V126.416C1319.74 142.616 1306.59 155.767 1290.39 155.767H864.718C856.172 155.767 849.232 148.828 849.232 140.281C849.232 139.463 849.296 138.659 849.419 137.874L849.225 137.906C849.23 137.734 849.232 137.561 849.232 137.387C849.232 127.243 840.997 119.008 830.853 119.008C830.096 119.008 829.348 119.053 828.615 119.142L828.634 118.993C828.41 119.002 828.185 119.008 827.958 119.008C819.412 119.008 812.473 112.069 812.473 103.521ZM827.777 125.158C836.224 125.158 843.082 132.016 843.082 140.463C843.082 148.909 836.224 155.767 827.777 155.767C819.331 155.767 812.473 148.909 812.473 140.463C812.473 132.016 819.331 125.158 827.777 125.158Z" fill="#0220AA"/>
<path fill-rule="evenodd" clip-rule="evenodd" d="M871.757 115.014V33.4199H897.439V60.8513H910.976V33.4199H936.658V115.014H910.976V83.7302H897.439V115.014H871.757ZM944.711 85.2478C944.711 76.8431 947.747 69.3724 953.585 63.4194C959.184 57.6997 966.655 54.4311 974.713 54.4311C982.766 54.4311 990.237 57.5829 995.841 63.4194C1001.56 69.3724 1004.71 76.9599 1004.71 85.2478C1004.71 93.5354 1001.67 101.24 995.955 107.076C990.237 112.912 982.766 116.064 974.713 116.064C966.655 116.064 959.304 112.912 953.585 107.076C947.747 101.123 944.711 93.6521 944.711 85.2478ZM968.755 85.131C968.755 88.8663 971.443 91.7844 974.713 91.7844C977.978 91.7844 980.666 88.983 980.666 85.131C980.666 81.2788 977.978 78.5941 974.713 78.5941C971.443 78.5941 968.755 81.3955 968.755 85.131ZM1010.55 115.014V94.586H1025.37C1027.24 94.586 1028.17 93.7689 1028.17 92.4848C1028.17 91.5509 1027.82 91.084 1026.89 90.5006L1024.21 88.983C1015.33 83.7302 1010.43 80.2282 1010.43 71.4736C1010.43 61.7851 1017.55 55.5985 1030.74 55.5985H1053.15V74.5084H1040.08C1038.68 74.5084 1037.63 75.3256 1037.63 76.7264C1037.63 77.4268 1038.1 78.0105 1038.91 78.4774L1041.25 79.878C1050.35 85.3642 1056.07 88.7495 1056.07 98.0878C1056.07 103.691 1053.39 108.71 1048.72 111.745C1043.82 114.897 1038.33 115.014 1031.68 115.014H1010.55ZM1062.61 39.3731H1086.07V55.5985H1097.74V75.7925H1086.07V89.2165C1086.07 93.1852 1087.94 94.3525 1092.26 94.3525H1097.74V115.014H1088.29C1070.66 115.014 1062.61 107.543 1062.61 91.084V39.3731ZM1105.68 115.014V55.5985H1129.14V115.014H1105.68ZM1103.58 37.5054C1103.58 29.8014 1109.77 23.7314 1117.47 23.7314C1125.18 23.7314 1131.24 29.8014 1131.24 37.5054C1131.24 45.2096 1125.18 51.2795 1117.47 51.2795C1109.77 51.2795 1103.58 45.2096 1103.58 37.5054ZM1170 115.014V81.0453C1170 78.2439 1168.13 76.3762 1165.68 76.3762C1163.23 76.3762 1161.36 78.2439 1161.36 81.0453V115.014H1137.9V85.5977C1137.9 77.8937 1138.83 71.8238 1143.03 65.9873C1148.17 58.8668 1156.58 54.4311 1165.68 54.4311C1174.78 54.4311 1183.07 58.75 1188.33 65.9873C1192.41 71.5903 1193.46 77.777 1193.46 85.5977V115.014H1170ZM1237 88.1659C1237 81.629 1235.25 78.3607 1230.47 78.3607C1226.96 78.3607 1224.05 81.3955 1224.05 85.2478C1224.05 89.0997 1227.08 92.0178 1230.11 92.0178C1231.4 92.0178 1232.8 91.7844 1234.31 91.3174V113.613C1231.52 114.43 1228.95 114.78 1226.85 114.78C1211.32 114.78 1200.58 103.107 1200.58 85.2478C1200.58 77.0766 1203.61 69.3724 1209.22 63.6526C1214.94 57.9331 1222.53 54.6646 1230.58 54.6646C1244.12 54.6646 1254.98 62.719 1258.83 75.4423C1260.35 80.4616 1260.46 85.5977 1260.46 90.9672V108.71C1260.46 130.772 1250.42 141.044 1227.43 141.044C1219.96 141.044 1212.26 139.877 1204.2 137.659V117.231C1211.44 119.683 1217.74 121.083 1223.46 121.083C1233.85 121.083 1237 117.932 1237 109.644V88.1659Z" fill="white"/>
</g>
</svg>
