<?xml version="1.0" encoding="UTF-8"?>
<!-- Generator: Adobe Illustrator 14.0.0, SVG Export Plug-In . SVG Version: 6.00 Build 43363)  -->
<svg xmlns="http://www.w3.org/2000/svg" xmlns:xlink="http://www.w3.org/1999/xlink" version="1.1" id="Vrstva_1" x="0px" y="0px" width="851.014px" height="850.457px" viewBox="0 595.28 851.014 850.457" xml:space="preserve">
<rect y="595.28" fill="#FE0B05" width="850.457" height="850.457"></rect>
<g>
	<path fill="#FFFFFF" d="M814.932,1032.687c-28.746,0-57.437,0-86.128,0c-12.303,56.984-21.091,117.539-31.864,176.056   c-34.645-5.273-63.505-22.455-81.479-44.964c-6.181-7.769-16.897-23.928-17.805-34.646c-1.02-12.642,6.011-33.962,8.448-48.704   c2.723-16.442,5.67-31.922,8.449-47.742c-16.557,0-33.056,0-49.613,0c2.098-11.964,4.479-23.645,6.578-35.607   c76.657,2.664,115.271-32.717,134.889-87.092c14.346,0,28.748,0,43.093,0c-5.103,29.258-10.546,58.118-15.933,87.092   c17.181,0,34.361,0,51.484,0c18.088-83.35-26.366-154.962-78.645-186.375c-21.147-12.7-49.159-20.469-76.771-28.123   c-28.463-7.881-57.777-12.587-88.963-14.969c-203.554-15.763-344.001,89.303-427.067,195.73c-13.438,0-26.819,0-40.257,0   c-0.681-4.536,3.289-7.938,5.613-11.227c63.675-89.927,154.339-162.106,272.502-198.564   c42.695-13.154,87.035-20.016,140.504-22.454c40.313-1.871,92.252,4.253,126.44,12.191c36.97,8.562,73.938,18.654,102.062,34.644   C797.809,821.989,845.835,916.395,814.932,1032.687z"></path>
	<path fill="#FFFFFF" d="M457.154,814.448c-10.83,61.009-21.717,121.849-32.773,182.632c32.546,3.628,70.536-4.876,99.283,0   c20.071,3.403,38.16,22.906,39.35,45.871c0.623,12.417-4.082,27.556-6.577,42.128c-6.634,39.065-15.082,85.617-21.546,123.605   c-30.846-5.271-56.304-18.143-73.994-37.479c-9.412-10.261-23.871-29.596-25.288-42.127c-1.36-12.02,6.124-34.645,8.448-48.704   c2.721-16.502,5.67-31.979,8.449-47.743c-10.944,0-21.831,0-32.773,0c-12.304,56.984-21.093,117.54-31.866,176.054   c-37.763,0-75.525,0-113.287,0c10.149-58.797,20.526-117.482,30.901-176.054c-15.933,0-31.809,0-47.742,0   c-12.304,56.984-21.092,117.54-31.865,176.054c-40.768-6.689-69.231-26.421-88.056-57.098   c-4.196-6.802-10.546-16.158-11.227-22.453c-1.361-12.019,6.124-34.644,8.448-48.704c2.722-16.499,5.67-31.979,8.449-47.742   c-15.593,0-31.242,0-46.834,0c-10.604,50.521-18.881,99.566-28.123,153.601c-4.026,23.814-13.042,53.809,11.226,61.806   c16.613,5.442,59.365,0.964,80.572,0.964c173.503,0,347.97,0,524.422,0c25.798,0,50.18,2.777,58.061-13.1   c4.649-9.412,6.408-31.185,8.449-42.128c7.938-42.638,14.231-85.334,22.453-127.349c11.851,0,23.7,0,35.607,0   c-6.634,40.256-15.877,89.699-23.418,132.055c-3.685,20.754-4.592,41.449-13.098,56.19c-7.711,13.381-26.081,27.442-43.092,29.938   c-23.758,3.514-53.185,0-81.479,0c-162.446,0-326.424,0-488.871,0c-26.876,0-59.479,3.288-82.386-0.907   c-27.159-4.989-47.004-28.294-49.612-53.355c-2.042-19.335,4.933-40.37,8.449-59.933c10.602-59.536,19.277-114.308,29.994-173.276   c94.406,8.562,149.463-22.227,170.441-87.092c14.062,0,28.124,0,42.128,0c-4.933,29.087-9.809,58.231-14.969,87.092   c15.593,0,31.243,0,46.834,0c7.315-31.299,12.191-62.483,17.804-95.541c3.685-21.716,5.273-35.211,17.804-48.705   C369.382,827.319,407.145,806.566,457.154,814.448z"></path>
</g>
</svg>
