<svg xmlns="http://www.w3.org/2000/svg" xmlns:xlink="http://www.w3.org/1999/xlink" xmlns:serif="http://www.serif.com/" width="100%" height="100%" viewBox="0 0 1321 165" xml:space="preserve" style="fill-rule:evenodd;clip-rule:evenodd;stroke-linejoin:round;stroke-miterlimit:2;">    <g transform="matrix(1,0,0,1,-515.7,-580.463)">        <g id="White" transform="matrix(0.343934,0,0,0.0762849,515.7,580.463)">            <rect x="0" y="0" width="3840" height="2160" style="fill:none;"></rect>            <clipPath id="_clip1">                <rect x="0" y="0" width="3840" height="2160"></rect>            </clipPath>            <g clip-path="url(#_clip1)">                <g transform="matrix(1.01239,0,0,1,-1.81899e-12,0)">                    <g transform="matrix(8.09938,0,0,36.9689,-219.666,-355.265)">                        <path d="M168.15,51.389L168.15,63.901L160.787,63.901C151.984,63.901 146.552,61.536 141.759,55.743C138.036,51.159 136.109,45.94 136.109,40.293C136.109,33.503 138.897,26.991 143.838,22.343C148.055,18.335 153.2,16.335 159.5,16.335L168.15,16.335L168.15,28.988L163.85,28.988C157.713,28.988 153.767,30.997 152.777,34.653L168.15,34.653L168.15,45.797L152.777,45.797C153.704,49.456 157.136,51.389 162.713,51.389L168.15,51.389ZM189.395,63.901L174.662,63.901L174.662,16.335L189.752,16.335C197.612,16.335 203.34,18.335 207.634,22.56C212.274,27.134 214.926,33.57 214.926,40.438C214.926,53.377 205.487,63.901 193.9,63.901L191.757,63.901L191.757,50.528L192.622,50.528C194.464,50.528 196.965,48.887 198.127,46.872C199.116,45.09 199.686,42.799 199.686,40.293C199.686,33.793 196.112,29.639 190.466,29.639L189.395,29.639L189.395,63.901ZM243.175,15.405C256.556,15.405 267.714,26.634 267.714,40.159C267.714,53.751 256.556,64.842 242.973,64.842C229.163,64.842 218.007,53.811 218.007,40.23C218.007,26.347 229.087,15.405 243.175,15.405ZM242.753,29.93C237.524,29.93 233.227,34.43 233.227,40.013C233.227,45.655 237.602,50.313 242.973,50.313C248.19,50.313 252.481,45.655 252.481,40.083C252.481,34.365 248.19,29.93 242.753,29.93ZM271.652,63.901L271.652,50.592L281.948,50.592C283.585,50.592 284.014,50.592 284.665,50.46C286.024,50.239 286.885,49.374 286.885,48.307C286.885,47.524 286.885,47.438 284.233,45.305L278.16,40.293C273.294,36.293 271.652,33.439 271.652,29.203C271.652,21.268 277.871,16.335 287.96,16.335L301.768,16.335L301.768,29.639L293.041,29.639C289.672,29.639 288.672,30.067 288.672,31.282C288.672,32.074 289.233,32.709 291.104,34.143L296.905,38.724C301.972,42.799 303.905,46.09 303.905,50.672C303.905,58.749 297.245,63.901 286.812,63.901L271.652,63.901ZM133.507,16.5L124.872,53.963C123.172,61.442 119.908,64.842 113.041,64.842C106.242,64.842 102.978,61.374 101.279,53.963L92.712,16.5L108.01,16.5L111.341,35.538C111.613,36.965 112.157,40.977 113.041,47.436C114.061,40.501 114.741,36.489 114.877,35.538L118.141,16.5L133.507,16.5ZM73.041,37.998C72.537,33.113 70.308,28.717 66.972,25.421C63.166,21.648 57.904,19.309 52.112,19.309L52.108,19.309C46.318,19.309 41.059,21.648 37.248,25.421C33.437,29.19 31.07,34.392 31.07,40.121L31.07,40.125C31.07,45.857 33.437,51.055 37.248,54.828C41.059,58.6 46.318,60.937 52.11,60.937L52.112,60.937C57.324,60.937 62.108,59.047 65.791,55.92C66.891,55.842 68.216,54.148 72.826,53.92L72.822,53.922L72.818,53.928C72.187,54.85 71.495,55.728 70.749,56.555C70.016,57.371 69.216,58.148 68.349,58.881C63.975,62.594 58.3,64.842 52.112,64.842L52.11,64.842C45.228,64.842 38.982,62.066 34.458,57.59C29.928,53.111 27.121,46.93 27.121,40.125L27.121,40.121C27.121,33.313 29.928,27.134 34.459,22.659C38.982,18.18 45.228,15.405 52.108,15.405L52.112,15.405C58.995,15.405 65.241,18.18 69.766,22.659C73.228,26.084 75.576,30.5 76.503,35.455C76.837,37.654 75.812,41.613 71.437,44.375C68.931,45.766 67.529,46.248 65.754,46.248C64.353,46.248 63.56,45.945 62.033,44.859C60.508,46.127 59.651,46.852 58.124,48.184C54.891,51.019 52.996,52.178 51.41,52.178C50.312,52.178 49.089,51.334 48.477,50.115C48.112,49.453 47.988,48.725 47.988,47.518C47.988,46.912 48.112,45.402 48.234,44.137L43.778,48.484C41.578,50.475 40.234,51.264 38.831,51.264C37.367,51.264 35.351,50.115 34.25,48.602C33.335,47.457 33.033,46.43 32.785,44.316L32.785,43.531C32.785,43.17 32.847,42.502 32.908,41.719C33.335,39.184 34.191,37.429 35.778,35.555C40.172,30.484 43.227,28.067 45.243,28.067C46.034,28.067 47.316,28.367 48.051,28.671C48.601,28.976 48.847,29.333 48.847,29.879C48.847,32.055 46.034,35.134 38.464,41.297L38.22,42.264C37.794,43.592 37.734,44.014 37.734,44.557C37.734,45.221 38.097,45.766 38.587,45.766C38.831,45.766 39.197,45.584 39.624,45.281L41.273,44.193C43.899,42.564 50.25,36.583 53.179,33.019C55.194,30.544 56.11,29.696 56.782,29.696C57.025,29.696 57.818,29.942 58.371,30.122C59.162,30.421 59.529,30.726 59.529,31.205C59.529,31.451 59.162,32.055 58.062,33.927C55.011,38.879 52.692,43.711 52.692,45.102C52.692,45.826 53.179,46.43 53.79,46.43C54.704,46.43 55.803,45.523 59.589,41.838C59.468,41.297 59.408,40.812 59.408,40.511C59.408,37.49 65.085,30.363 67.468,30.363C68.566,30.363 69.422,31.571 69.422,33.259C69.422,35.678 68.931,36.705 65.329,41.719C66.183,42.625 66.999,43.191 68.016,42.988C70.68,42.451 73.016,39.629 73.041,37.998ZM78.387,12.805C81.516,12.805 84.058,15.34 84.058,18.47C84.058,21.6 81.516,24.138 78.387,24.138C75.259,24.138 72.721,21.6 72.721,18.47C72.721,15.34 75.259,12.805 78.387,12.805ZM78.387,23.267C81.037,23.267 83.187,21.12 83.187,18.47C83.187,15.822 81.037,13.674 78.387,13.674C75.741,13.674 73.592,15.822 73.592,18.47C73.592,21.12 75.741,23.267 78.387,23.267ZM77.6,18.709L77.112,18.709L77.112,20.921C77.112,21.213 77.049,21.428 76.921,21.563C76.792,21.703 76.625,21.771 76.417,21.771C76.196,21.771 76.021,21.701 75.9,21.555C75.779,21.413 75.717,21.201 75.717,20.921L75.717,15.62C75.717,15.322 75.783,15.101 75.921,14.967C76.054,14.833 76.271,14.765 76.573,14.765L78.845,14.765C79.156,14.765 79.423,14.78 79.646,14.805C79.868,14.833 80.068,14.884 80.25,14.967C80.462,15.059 80.656,15.188 80.82,15.357C80.987,15.526 81.112,15.724 81.2,15.947C81.287,16.172 81.329,16.409 81.329,16.659C81.329,17.171 81.185,17.584 80.896,17.893C80.604,18.197 80.167,18.416 79.575,18.542C79.825,18.676 80.06,18.872 80.283,19.126C80.51,19.384 80.712,19.657 80.891,19.947C81.067,20.234 81.204,20.497 81.302,20.734C81.402,20.965 81.452,21.125 81.452,21.213C81.452,21.305 81.424,21.395 81.364,21.484C81.306,21.572 81.229,21.643 81.127,21.694C81.026,21.747 80.912,21.771 80.779,21.771C80.625,21.771 80.491,21.734 80.385,21.663C80.279,21.588 80.187,21.497 80.108,21.38C80.033,21.271 79.929,21.101 79.796,20.884L79.239,19.951C79.037,19.609 78.858,19.351 78.7,19.173C78.542,18.995 78.379,18.872 78.216,18.805C78.054,18.74 77.85,18.709 77.6,18.709ZM78.4,15.813L77.112,15.813L77.112,17.709L78.362,17.709C78.7,17.709 78.981,17.678 79.208,17.622C79.437,17.559 79.612,17.463 79.733,17.324C79.854,17.184 79.912,16.993 79.912,16.747C79.912,16.559 79.866,16.388 79.769,16.243C79.671,16.097 79.537,15.988 79.366,15.916C79.2,15.847 78.881,15.813 78.4,15.813Z" style="fill:rgb(2,32,170);"></path>                    </g>                    <g transform="matrix(1,0,0,1.26779,-47.6436,-200.08)">                        <g transform="matrix(0.207731,0,0,1.09719,1499,-7321.79)">                            <path d="M4246,7792.64L4246,7178.6C4246,7025.94 4427.82,6902 4651.78,6902L10853.3,6902C11077.3,6902 11259.1,7025.94 11259.1,7178.6L11259.1,8008.4C11259.1,8161.06 11077.3,8285 10853.3,8285L4968.31,8285C4850.15,8285 4754.21,8219.61 4754.21,8139.06C4754.21,8131.35 4755.09,8123.77 4756.79,8116.38L4754.11,8116.68C4754.18,8115.06 4754.21,8113.43 4754.21,8111.79C4754.21,8016.19 4640.35,7938.58 4500.11,7938.58C4489.64,7938.58 4479.31,7939.01 4469.17,7939.85L4469.43,7938.44C4466.34,7938.53 4463.22,7938.58 4460.09,7938.58C4341.93,7938.58 4246,7873.19 4246,7792.64ZM4457.59,7996.54C4574.37,7996.54 4669.18,8061.17 4669.18,8140.77C4669.18,8220.37 4574.37,8285 4457.59,8285C4340.81,8285 4246,8220.37 4246,8140.77C4246,8061.17 4340.81,7996.54 4457.59,7996.54Z" style="fill:rgb(2,32,170);"></path>                        </g>                        <g transform="matrix(1.49306,0,0,2.76206,-1393.87,-239.618)">                            <path d="M2642.33,574.448L2642.33,269L2691.73,269L2691.73,371.69L2717.77,371.69L2717.77,269L2767.17,269L2767.17,574.448L2717.77,574.448L2717.77,457.338L2691.73,457.338L2691.73,574.448L2642.33,574.448ZM2782.66,463.019C2782.66,431.556 2788.5,403.589 2799.73,381.304C2810.5,359.892 2824.87,347.656 2840.37,347.656C2855.86,347.656 2870.23,359.455 2881.01,381.304C2892.01,403.589 2898.07,431.993 2898.07,463.019C2898.07,494.044 2892.23,522.885 2881.23,544.734C2870.23,566.582 2855.86,578.381 2840.37,578.381C2824.87,578.381 2810.73,566.582 2799.73,544.734C2788.5,522.448 2782.66,494.481 2782.66,463.019ZM2828.91,462.582C2828.91,476.565 2834.08,487.489 2840.37,487.489C2846.65,487.489 2851.82,477.002 2851.82,462.582C2851.82,448.161 2846.65,438.111 2840.37,438.111C2834.08,438.111 2828.91,448.598 2828.91,462.582ZM2909.3,574.448L2909.3,497.977L2937.81,497.977C2941.41,497.977 2943.2,494.918 2943.2,490.111C2943.2,486.615 2942.53,484.867 2940.73,482.683L2935.57,477.002C2918.5,457.338 2909.07,444.228 2909.07,411.455C2909.07,375.186 2922.77,352.026 2948.14,352.026L2991.25,352.026L2991.25,422.816L2966.1,422.816C2963.41,422.816 2961.39,425.875 2961.39,431.119C2961.39,433.741 2962.29,435.926 2963.86,437.674L2968.35,442.917C2985.86,463.455 2996.87,476.128 2996.87,511.086C2996.87,532.061 2991.7,550.851 2982.72,562.213C2973.29,574.011 2962.74,574.448 2949.94,574.448L2909.3,574.448ZM3009.44,291.286L3054.57,291.286L3054.57,352.026L3077.02,352.026L3077.02,427.623L3054.57,427.623L3054.57,477.876C3054.57,492.733 3058.16,497.103 3066.47,497.103L3077.02,497.103L3077.02,574.448L3058.84,574.448C3024.93,574.448 3009.44,546.481 3009.44,484.867L3009.44,291.286ZM3092.29,574.448L3092.29,352.026L3137.42,352.026L3137.42,574.448L3092.29,574.448ZM3088.25,284.294C3088.25,255.454 3100.15,232.731 3114.97,232.731C3129.79,232.731 3141.46,255.454 3141.46,284.294C3141.46,313.135 3129.79,335.858 3114.97,335.858C3100.15,335.858 3088.25,313.135 3088.25,284.294ZM3216.01,574.448L3216.01,447.287C3216.01,436.8 3212.42,429.808 3207.7,429.808C3202.99,429.808 3199.39,436.8 3199.39,447.287L3199.39,574.448L3154.26,574.448L3154.26,464.329C3154.26,435.489 3156.06,412.766 3164.14,390.917C3174.02,364.261 3190.19,347.656 3207.7,347.656C3225.21,347.656 3241.16,363.824 3251.26,390.917C3259.12,411.892 3261.14,435.052 3261.14,464.329L3261.14,574.448L3216.01,574.448ZM3344.89,473.943C3344.89,449.472 3341.52,437.237 3332.32,437.237C3325.58,437.237 3319.97,448.598 3319.97,463.019C3319.97,477.439 3325.8,488.363 3331.64,488.363C3334.11,488.363 3336.81,487.489 3339.72,485.741L3339.72,569.204C3334.34,572.263 3329.4,573.574 3325.36,573.574C3295.49,573.574 3274.84,529.876 3274.84,463.019C3274.84,432.43 3280.67,403.589 3291.45,382.177C3302.45,360.766 3317.05,348.53 3332.54,348.53C3358.59,348.53 3379.47,378.682 3386.88,426.312C3389.8,445.102 3390.02,464.329 3390.02,484.43L3390.02,550.851C3390.02,633.44 3370.71,671.894 3326.48,671.894C3312.11,671.894 3297.29,667.524 3281.8,659.222L3281.8,582.751C3295.72,591.927 3307.84,597.171 3318.84,597.171C3338.83,597.171 3344.89,585.373 3344.89,554.347L3344.89,473.943Z" style="fill:white;"></path>                        </g>                    </g>                </g>            </g>        </g>    </g></svg>